<svg xmlns="http://www.w3.org/2000/svg" xmlns:xlink="http://www.w3.org/1999/xlink" viewBox="0 0 214.44 228.36"><defs><style>.cls-1{isolation:isolate;}.cls-2{opacity:0.4;mix-blend-mode:multiply;fill:url(#linear-gradient);}.cls-3{fill:#9faed0;}.cls-4{fill:#f2a7c5;}.cls-5{fill:#9dcc96;}.cls-6{fill:none;stroke:#1f268e;stroke-miterlimit:10;stroke-width:5px;}.cls-7{fill:#1f2687;}.cls-8{fill:#1f268e;}</style><linearGradient id="linear-gradient" x1="10.04" y1="114.18" x2="214.44" y2="114.18" gradientUnits="userSpaceOnUse"><stop offset="0" stop-color="#efa6c2"/><stop offset="1" stop-color="#96cdbd"/></linearGradient></defs><title>Analysis</title><g class="cls-1"><g id="Layer_2" data-name="Layer 2"><g id="Layer_1-2" data-name="Layer 1"><path class="cls-2" d="M157.75,95a56.58,56.58,0,0,0-19.12,3.31,67.89,67.89,0,1,0-100,24.92,56.69,56.69,0,1,0,81.52,70.85A56.68,56.68,0,1,0,157.75,95Z"/><path class="cls-3" d="M99.78,18.23c-.47,0-.94,0-1.4,0A90.31,90.31,0,0,0,9.45,108.56c0,.33,0,.67,0,1a90.37,90.37,0,0,0,134.1,78c.48-.26,1-.54,1.43-.81h0a90.29,90.29,0,0,0,44.84-71.1V101.44A90.32,90.32,0,0,0,99.78,18.23Zm0,155.46a65.12,65.12,0,0,1-65.12-64.13c0-.33,0-.67,0-1a65.14,65.14,0,1,1,65.13,65.13Z"/><path class="cls-4" d="M101,17.71c-.47,0-.94,0-1.4,0v25.2c.46,0,.93,0,1.4,0a65.14,65.14,0,0,1,32,121.85l11.7,22.34,0,0c.48-.26,1-.54,1.43-.81h0a90.29,90.29,0,0,0,44.84-71.1V100.92A90.32,90.32,0,0,0,101,17.71Z"/><path class="cls-5" d="M25,54.89s0,0,0,0A89.86,89.86,0,0,0,9.61,105.41c0,.33,0,.67,0,1H34.83c0-.33,0-.67,0-1a64.84,64.84,0,0,1,6.67-28.73v0a65.1,65.1,0,0,1,57-36.37V15.09A90.24,90.24,0,0,0,25,54.89Z"/><path class="cls-6" d="M191,101.91a92,92,0,1,0-45.67,86.92h0A92,92,0,0,0,191,116.41"/><circle class="cls-6" cx="99.33" cy="109.16" r="66.33"/><line class="cls-6" x1="99.33" y1="17.16" x2="99.33" y2="42.83"/><line class="cls-6" x1="133.36" y1="166.11" x2="145.37" y2="188.83"/><line class="cls-6" x1="7.33" y1="109.16" x2="32.99" y2="109.16"/><line class="cls-6" x1="122.04" y1="86.45" x2="76.62" y2="131.87"/><circle class="cls-6" cx="79.94" cy="89.77" r="11.61"/><circle class="cls-6" cx="118.72" cy="128.55" r="11.61"/><path class="cls-7" d="M12.29,19.65H9.69V17A2.36,2.36,0,1,0,5,17v2.6H2.36a2.36,2.36,0,0,0,0,4.73H5V27a2.36,2.36,0,0,0,4.73,0v-2.6h2.6a2.36,2.36,0,1,0,0-4.73Z"/><path class="cls-7" d="M196,41.95h-2.6v-2.6a2.36,2.36,0,1,0-4.73,0v2.6h-2.6a2.36,2.36,0,0,0,0,4.73h2.6v2.6a2.36,2.36,0,0,0,4.73,0v-2.6H196a2.36,2.36,0,1,0,0-4.73Z"/><path class="cls-7" d="M12.29,193.95H9.69v-2.6a2.36,2.36,0,1,0-4.73,0v2.6H2.36a2.36,2.36,0,0,0,0,4.73H5v2.6a2.36,2.36,0,0,0,4.73,0v-2.6h2.6a2.36,2.36,0,1,0,0-4.73Z"/><circle class="cls-8" cx="191.04" cy="109.16" r="2.4"/><line class="cls-6" x1="51.99" y1="125.16" x2="51.99" y2="155.63"/><line class="cls-6" x1="51.99" y1="111.56" x2="51.99" y2="120.83"/></g></g></g></svg>