<svg xmlns="http://www.w3.org/2000/svg" xmlns:xlink="http://www.w3.org/1999/xlink" viewBox="0 0 269.62 250.47"><defs><style>.cls-1{isolation:isolate;}.cls-2{opacity:0.4;mix-blend-mode:multiply;fill:url(#linear-gradient);}.cls-3{fill:#a8dedb;}.cls-3,.cls-5{stroke:#1f2687;}.cls-3,.cls-4,.cls-5,.cls-6,.cls-7,.cls-8{stroke-miterlimit:10;stroke-width:5px;}.cls-4{fill:#9dcc96;}.cls-4,.cls-6,.cls-8{stroke:#212683;}.cls-5{fill:#f2a7c5;}.cls-6,.cls-7{fill:none;}.cls-7{stroke:#1f268e;}.cls-8{fill:#9faed0;}.cls-9{fill:#1f2687;}.cls-10{fill:#1f268e;}</style><linearGradient id="linear-gradient" x1="612.03" y1="379.1" x2="835.46" y2="379.1" gradientTransform="translate(-653.27 346.66) rotate(-42)" gradientUnits="userSpaceOnUse"><stop offset="0" stop-color="#efa6c2"/><stop offset="1" stop-color="#96cdbd"/></linearGradient></defs><title>Atm</title><g class="cls-1"><g id="Layer_2" data-name="Layer 2"><g id="Layer_1-2" data-name="Layer 1"><path class="cls-2" d="M182.29,83.87A53.78,53.78,0,1,0,76.77,75.19a68.07,68.07,0,1,0,62,100.32,68.09,68.09,0,1,0,43.57-91.63Z"/><path class="cls-3" d="M35.54,195.84H17.67a3,3,0,0,1-3-3V31.06a3,3,0,0,1,3-3H216.93a3,3,0,0,1,3,3V192.83a3,3,0,0,1-3,3h-64.1"/><path class="cls-4" d="M151,243.8H83.63a1.87,1.87,0,0,1-1.87-1.87V152.16h71.06v89.76A1.87,1.87,0,0,1,151,243.8Z"/><path class="cls-5" d="M130.75,231.54H103.84c-1.25,0-2.33-1.22-2.83-3a8.07,8.07,0,0,1-.3-2.21v-1c0-.21,0-.42,0-.62l0-.25c0-.17,0-.34-.07-.5s0-.08,0-.13a3.46,3.46,0,0,0-.09-.38c0-.11,0-.22-.08-.32a.17.17,0,0,0,0,0,3.13,3.13,0,0,0-.12-.35c0-.09-.05-.17-.09-.25l-.14-.31c0-.1-.09-.2-.15-.29l-.13-.23a3.87,3.87,0,0,0-.23-.32l-.11-.16,0-.05c-.09-.09-.17-.19-.25-.26l-.07-.07-.3-.24-.08-.05-.29-.16,0,0a1.61,1.61,0,0,0-.34-.11l-.08,0a2.19,2.19,0,0,0-.36,0l-.32,0h0a2,2,0,0,1-.54-.17h0l-.23-.13,0,0-.22-.15,0,0-.21-.19,0,0a5.07,5.07,0,0,1-1.21-2.19v0a7.58,7.58,0,0,1-.18-.81,0,0,0,0,1,0,0,8.71,8.71,0,0,1-.12-1.4V152.16h45.71V215c0,.23,0,.46,0,.68s0,.23,0,.33l0,.15c0,.11,0,.23-.05.34s0,.09,0,.13,0,.23-.07.33l0,.12c0,.11-.06.23-.1.34l0,.09c0,.12-.09.24-.13.35l0,.05a5.25,5.25,0,0,1-.37.75c-.07.12-.15.23-.23.33l0,0a2.32,2.32,0,0,1-.19.24l-.09.1-.13.14-.13.11-.11.09-.16.12-.09,0-.19.11-.05,0a1.89,1.89,0,0,1-.5.16h0l-.32,0a2.27,2.27,0,0,0-.36,0l-.09,0a1.93,1.93,0,0,0-.33.11l-.08,0-.25.14-.12.07-.26.21-.12.12-.17.18-.11.13,0,.07c-.1.13-.2.28-.29.43l-.07.13c-.08.13-.15.28-.23.43a1.06,1.06,0,0,1-.07.15c-.07.19-.15.38-.21.58a.09.09,0,0,0,0,0,6.5,6.5,0,0,0-.18.73.12.12,0,0,0,0,0,.34.34,0,0,0,0,.07V224c0,.17,0,.33-.07.5l0,.25c0,.21,0,.41,0,.62v1C133.88,229.22,132.48,231.54,130.75,231.54Z"/><path class="cls-6" d="M81.76,166.07H58.13c-7.31,0-13.24-5.09-13.24-11.36v-5.09c0-6.28,5.93-11.37,13.24-11.37H176.45c7.32,0,13.25,5.09,13.25,11.37v5.09c0,6.27-5.93,11.36-13.25,11.36H152.83"/><line class="cls-7" x1="81.77" y1="195.84" x2="50.04" y2="195.84"/><rect class="cls-8" x="28.04" y="48.83" width="89.26" height="68.17" rx="1.38" ry="1.38"/><rect class="cls-5" x="134.54" y="48.83" width="22.72" height="22.72"/><rect class="cls-5" x="157.26" y="48.83" width="22.72" height="22.72"/><rect class="cls-5" x="179.98" y="48.83" width="22.72" height="22.72"/><rect class="cls-5" x="134.54" y="71.55" width="22.72" height="22.72"/><rect class="cls-5" x="157.26" y="71.55" width="22.72" height="22.72"/><rect class="cls-5" x="179.98" y="71.55" width="22.72" height="22.72"/><rect class="cls-5" x="134.54" y="94.27" width="22.72" height="22.72"/><rect class="cls-5" x="157.26" y="94.27" width="22.72" height="22.72"/><rect class="cls-5" x="179.98" y="94.27" width="22.72" height="22.72"/><path class="cls-7" d="M132,184.32V170.83a6.66,6.66,0,0,0-6.66-6.66h-1.23a6.66,6.66,0,0,0-6.66,6.66v6.83a6.66,6.66,0,0,1-6.66,6.66h-1.51a6.66,6.66,0,0,1-6.66-6.66V164.17"/><polyline class="cls-7" points="140.15 174.25 131.98 174.25 102.61 174.25 94.44 174.25"/><line class="cls-7" x1="140.15" y1="206.48" x2="94.44" y2="206.48"/><line class="cls-7" x1="155.59" y1="161.08" x2="152.83" y2="161.08"/><polyline class="cls-7" points="175.2 152.17 158.71 152.17 143.93 152.17 90.66 152.17 75.89 152.17 59.39 152.17"/><path class="cls-7" d="M83.37,67.31H69A7.07,7.07,0,0,0,62,74.38v1.3A7.07,7.07,0,0,0,69,82.76H76.3a7.07,7.07,0,0,1,7.07,7.07v1.61a7.07,7.07,0,0,1-7.07,7.07H62"/><polyline class="cls-7" points="72.67 58.63 72.67 67.31 72.67 98.52 72.67 107.2"/><path class="cls-9" d="M12.29,5H9.69V2.36A2.36,2.36,0,1,0,5,2.36V5H2.36a2.36,2.36,0,0,0,0,4.73H5v2.6a2.36,2.36,0,0,0,4.73,0V9.69h2.6a2.36,2.36,0,1,0,0-4.73Z"/><path class="cls-9" d="M217.57,240.78H215v-2.6a2.36,2.36,0,1,0-4.73,0v2.6h-2.6a2.36,2.36,0,0,0,0,4.73h2.6v2.6a2.36,2.36,0,0,0,4.73,0v-2.6h2.6a2.36,2.36,0,1,0,0-4.73Z"/><path class="cls-9" d="M45.06,231.15h-2.6v-2.6a2.36,2.36,0,1,0-4.73,0v2.6h-2.6a2.36,2.36,0,0,0,0,4.73h2.6v2.6a2.36,2.36,0,0,0,4.73,0v-2.6h2.6a2.36,2.36,0,1,0,0-4.73Z"/><circle class="cls-10" cx="42.5" cy="195.84" r="2.4"/><line class="cls-7" x1="42.5" y1="48.83" x2="42.5" y2="67.31"/><line class="cls-7" x1="42.5" y1="76.19" x2="42.5" y2="83.94"/></g></g></g></svg>