<svg xmlns="http://www.w3.org/2000/svg" xmlns:xlink="http://www.w3.org/1999/xlink" viewBox="0 0 246.65 234.33"><defs><style>.cls-1{isolation:isolate;}.cls-2{opacity:0.4;mix-blend-mode:multiply;fill:url(#linear-gradient);}.cls-3{fill:#f2a7c5;stroke:#1f2687;}.cls-3,.cls-4,.cls-5{stroke-miterlimit:10;stroke-width:5px;}.cls-4{fill:#9dcc96;stroke:#212683;}.cls-5{fill:none;stroke:#1f268e;}.cls-6{fill:#1f2687;}.cls-7{fill:#1f268e;}</style><linearGradient id="linear-gradient" x1="23.17" y1="112.62" x2="215.69" y2="112.62" gradientUnits="userSpaceOnUse"><stop offset="0" stop-color="#efa6c2"/><stop offset="1" stop-color="#96cdbd"/></linearGradient></defs><title>Bank</title><g class="cls-1"><g id="Layer_2" data-name="Layer 2"><g id="Layer_1-2" data-name="Layer 1"><path class="cls-2" d="M183.64,78.28a47.78,47.78,0,1,0-84.3-35.39,67.56,67.56,0,0,0-26.91,132q-.07,1.26-.07,2.53a47.78,47.78,0,1,0,95.12-6.3h.43a47.78,47.78,0,0,0,15.72-92.89Z"/><path class="cls-3" d="M76.78,70.34H12.39V86.21a7.25,7.25,0,0,0,7.25,7.25H66.46"/><path class="cls-3" d="M160.57,93.46h46.82a7.25,7.25,0,0,0,7.25-7.25V70.34H150.25"/><rect class="cls-3" x="23.32" y="93.46" width="28.23" height="14.23"/><rect class="cls-3" x="26.32" y="107.7" width="22.23" height="106.52"/><line class="cls-3" x1="126.28" y1="107.69" x2="124.63" y2="107.69"/><line class="cls-3" x1="100.75" y1="93.46" x2="99.4" y2="93.46"/><polyline class="cls-3" points="102.4 146.85 102.4 214.21 124.63 214.21 124.63 146.85"/><rect class="cls-3" x="175.49" y="93.46" width="28.23" height="14.23"/><rect class="cls-3" x="178.49" y="107.7" width="22.23" height="106.52"/><path class="cls-3" d="M150.25,70.34h73.13a1.16,1.16,0,0,0,1.16-1.15V52.35a1.17,1.17,0,0,0-.83-1.11L116.6,19.58a10.94,10.94,0,0,0-6.16,0L3.32,51.24a1.16,1.16,0,0,0-.82,1.11V69.19a1.15,1.15,0,0,0,1.15,1.15H76.78"/><circle class="cls-4" cx="113.52" cy="100.58" r="47.59"/><line class="cls-5" x1="100.75" y1="93.46" x2="99.4" y2="93.46"/><path class="cls-3" d="M84,231.83H218.08v-1.62a16,16,0,0,0-16-16H25a16,16,0,0,0-16,16v1.62H69.52"/><path class="cls-5" d="M126.4,82H109.15a8.51,8.51,0,0,0-8.51,8.51v1.57a8.51,8.51,0,0,0,8.51,8.51h8.74a8.51,8.51,0,0,1,8.51,8.51V111a8.51,8.51,0,0,1-8.51,8.51H100.63"/><polyline class="cls-5" points="113.52 71.53 113.52 81.98 113.52 119.54 113.52 130"/><path class="cls-6" d="M28.28,15.37h-2.6v-2.6a2.36,2.36,0,1,0-4.73,0v2.6h-2.6a2.36,2.36,0,0,0,0,4.73H21v2.6a2.36,2.36,0,0,0,4.73,0V20.1h2.6a2.36,2.36,0,1,0,0-4.73Z"/><path class="cls-6" d="M244.29,158.59h-2.6V156a2.36,2.36,0,1,0-4.73,0v2.6h-2.6a2.36,2.36,0,0,0,0,4.73H237v2.6a2.36,2.36,0,0,0,4.73,0v-2.6h2.6a2.36,2.36,0,1,0,0-4.73Z"/><path class="cls-6" d="M13.91,158.59h-2.6V156a2.36,2.36,0,1,0-4.73,0v2.6H4a2.36,2.36,0,0,0,0,4.73h2.6v2.6a2.36,2.36,0,0,0,4.73,0v-2.6h2.6a2.36,2.36,0,1,0,0-4.73Z"/><circle class="cls-7" cx="76.9" cy="231.83" r="2.4"/><line class="cls-5" x1="57.6" y1="35.2" x2="57.6" y2="50.17"/><line class="cls-5" x1="57.6" y1="55.83" x2="57.6" y2="60.83"/></g></g></g></svg>