<svg xmlns="http://www.w3.org/2000/svg" xmlns:xlink="http://www.w3.org/1999/xlink" viewBox="0 0 223.44 233.7"><defs><style>.cls-1{isolation:isolate;}.cls-2{opacity:0.4;mix-blend-mode:multiply;fill:url(#linear-gradient);}.cls-3{fill:#cec09f;}.cls-3,.cls-4,.cls-5{stroke:#212683;}.cls-3,.cls-4,.cls-5,.cls-6,.cls-7,.cls-8{stroke-miterlimit:10;stroke-width:5px;}.cls-4{fill:#9dcc96;}.cls-5{fill:#9faed0;}.cls-6{fill:#f2a7c5;}.cls-6,.cls-7{stroke:#1f2687;}.cls-7{fill:#a8dedb;}.cls-8{fill:none;stroke:#1f268e;}.cls-9{fill:#1f268e;}.cls-10{fill:#1f2687;}</style><linearGradient id="linear-gradient" y1="119.54" x2="223.44" y2="119.54" gradientUnits="userSpaceOnUse"><stop offset="0" stop-color="#efa6c2"/><stop offset="1" stop-color="#96cdbd"/></linearGradient></defs><title>Calculator</title><g class="cls-1"><g id="Layer_2" data-name="Layer 2"><g id="Layer_1-2" data-name="Layer 1"><path class="cls-2" d="M184.76,104.18a53.78,53.78,0,1,0-72.61-77.06,68.07,68.07,0,1,0-21.07,116,68.09,68.09,0,1,0,93.69-38.95Z"/><rect class="cls-3" x="53.85" y="2.5" width="111.01" height="212.5"/><rect class="cls-4" x="53.85" y="103.84" width="55.51" height="55.51"/><rect class="cls-5" x="109.35" y="103.84" width="55.51" height="55.51"/><line class="cls-5" x1="149.12" y1="119.58" x2="125.1" y2="143.6"/><rect class="cls-6" x="53.85" y="159.34" width="55.51" height="55.51"/><rect class="cls-7" x="109.35" y="159.34" width="55.51" height="55.51"/><line class="cls-8" x1="81.6" y1="114.6" x2="81.6" y2="148.57"/><line class="cls-8" x1="65.22" y1="131.59" x2="97.98" y2="131.59"/><line class="cls-8" x1="125.52" y1="120.01" x2="148.69" y2="143.17"/><circle class="cls-9" cx="137.11" cy="174.13" r="3.87"/><circle class="cls-9" cx="137.11" cy="200.06" r="3.87"/><line class="cls-8" x1="65.22" y1="187.09" x2="97.98" y2="187.09"/><polyline class="cls-3" points="102.11 27 71.37 27 53.85 27 53.85 103.84 109.36 103.84 164.86 103.84 164.86 27 116.61 27"/><circle class="cls-9" cx="65.53" cy="14.17" r="2.06"/><circle class="cls-9" cx="79.7" cy="14.17" r="2.06"/><path class="cls-9" d="M107,76.63c2.6,0,5.47.33,8-.37A10.05,10.05,0,0,0,115.4,57c-2.63-.83-5.67-.47-8.39-.47-3.22,0-3.22,5,0,5,3.92,0,10.43-.76,10.39,5.06S111,71.63,107,71.63c-3.22,0-3.22,5,0,5Z"/><path class="cls-9" d="M107,91.75c2.6,0,5.47.33,8-.37a10.05,10.05,0,0,0,.38-19.27c-2.63-.83-5.67-.47-8.39-.47-3.22,0-3.22,5,0,5,3.92,0,10.43-.76,10.39,5.06S111,86.75,107,86.75c-3.22,0-3.22,5,0,5Z"/><path class="cls-9" d="M148.76,74.13c-.14,4.27-1.78,12.62-7.52,12.62s-7.52-8.34-7.52-12.62,1.66-11.72,6.85-12.51c6.15-.93,8.06,8.18,8.2,12.51.11,3.21,5.11,3.22,5,0-.24-7.19-3.69-17.62-12.52-17.62-8.68,0-12.51,10.42-12.52,17.62s3.86,17.62,12.52,17.62c8.84,0,12.28-10.43,12.52-17.62C153.87,70.91,148.87,70.92,148.76,74.13Z"/><line class="cls-8" x1="84.37" y1="89.25" x2="97.98" y2="89.25"/><path class="cls-10" d="M29.34,24.64h-2.6V22A2.36,2.36,0,1,0,22,22v2.6h-2.6a2.36,2.36,0,0,0,0,4.73H22V32a2.36,2.36,0,0,0,4.73,0v-2.6h2.6a2.36,2.36,0,1,0,0-4.73Z"/><path class="cls-10" d="M192.3,55.73h-2.6v-2.6a2.36,2.36,0,1,0-4.73,0v2.6h-2.6a2.36,2.36,0,0,0,0,4.73H185v2.6a2.36,2.36,0,0,0,4.73,0v-2.6h2.6a2.36,2.36,0,1,0,0-4.73Z"/><path class="cls-10" d="M25.63,167.9H23v-2.6a2.36,2.36,0,1,0-4.73,0v2.6h-2.6a2.36,2.36,0,0,0,0,4.73h2.6v2.6a2.36,2.36,0,0,0,4.73,0v-2.6h2.6a2.36,2.36,0,1,0,0-4.73Z"/><line class="cls-8" x1="71.37" y1="27" x2="71.37" y2="48.5"/><line class="cls-8" x1="71.37" y1="55.5" x2="71.37" y2="65.42"/><circle class="cls-9" cx="109.35" cy="27" r="2.4"/></g></g></g></svg>