<svg xmlns="http://www.w3.org/2000/svg" xmlns:xlink="http://www.w3.org/1999/xlink" viewBox="0 0 237.03 228.36"><defs><style>.cls-1{isolation:isolate;}.cls-2{opacity:0.4;mix-blend-mode:multiply;fill:url(#linear-gradient);}.cls-3{fill:#9faed0;stroke:#212683;}.cls-3,.cls-4,.cls-5{stroke-miterlimit:10;stroke-width:5px;}.cls-4{fill:none;stroke:#1f268e;}.cls-5{fill:#f2a7c5;stroke:#1f2687;}.cls-6{fill:#1f2687;}.cls-7{fill:#1f268e;}</style><linearGradient id="linear-gradient" x1="32.64" y1="114.18" x2="237.03" y2="114.18" gradientUnits="userSpaceOnUse"><stop offset="0" stop-color="#efa6c2"/><stop offset="1" stop-color="#96cdbd"/></linearGradient></defs><title>Chart</title><g class="cls-1"><g id="Layer_2" data-name="Layer 2"><g id="Layer_1-2" data-name="Layer 1"><path class="cls-2" d="M180.34,95a56.58,56.58,0,0,0-19.12,3.31,67.89,67.89,0,1,0-100,24.92,56.69,56.69,0,1,0,81.52,70.85A56.68,56.68,0,1,0,180.34,95Z"/><polyline class="cls-3" points="78.53 85.78 67.57 95.03 65.09 97.13 65.09 225.15 97.09 225.15 97.09 102.13"/><polyline class="cls-3" points="33.09 125.23 33.09 225.15 65.09 225.15 65.09 98.51"/><polyline class="cls-3" points="193.09 182.87 193.09 86.37 161.09 113.51 161.09 225.15 193.09 225.15 193.09 197.28"/><polyline class="cls-3" points="97.09 103.46 97.09 225.15 129.09 225.15 129.09 140.09"/><polyline class="cls-3" points="129.09 140.09 129.09 225.15 161.09 225.15 161.09 112.77"/><polyline class="cls-3" points="193.09 197.09 193.09 225.15 161.09 225.15 161.09 112.77"/><line class="cls-4" x1="49.09" y1="186.84" x2="49.09" y2="225.15"/><path class="cls-5" d="M65.09,98.51l-32,26.72-9.41,7.86a2.19,2.19,0,0,1-3.59-1.68V115.05a2.19,2.19,0,0,1,.78-1.68l12.22-10.2,21.58-18L79.91,64.07a1.57,1.57,0,0,1,2.19.17l18.27,20.91,27.3,31.25a2.19,2.19,0,0,0,3.07.22l30.36-25.92,6.51-5.56,26.15-22.32a2.19,2.19,0,0,0,.36-2.93l-3.9-5.48A2.19,2.19,0,0,1,191.79,51l31.29-3a2.19,2.19,0,0,1,2.19,3.09L212.18,79.68a2.19,2.19,0,0,1-3.77.36l-2-2.82a2.19,2.19,0,0,0-3.2-.4l-10.12,8.64-32,27.32-30.36,25.92a2.19,2.19,0,0,1-3.07-.22l-30.58-35-15-17.15a1.57,1.57,0,0,0-2.19-.17L67.57,96.44Z"/><path class="cls-4" d="M100.37,85.15l26.5,30.34v0"/><line class="cls-4" x1="161.09" y1="90.71" x2="131.65" y2="115.84"/><line class="cls-4" x1="193.09" y1="182.59" x2="193.09" y2="85.45"/><line class="cls-4" x1="15.59" y1="225.15" x2="216.59" y2="225.15"/><path class="cls-4" d="M148.45,15.87H126.78a10.69,10.69,0,0,0-10.69,10.69v2a10.69,10.69,0,0,0,10.69,10.69h11a10.69,10.69,0,0,1,10.69,10.69v2.43A10.69,10.69,0,0,1,137.76,63H116.09"/><polyline class="cls-4" points="132.27 2.74 132.27 15.87 132.27 63.04 132.27 76.17"/><line class="cls-4" x1="49.09" y1="164.31" x2="49.09" y2="178.59"/><path class="cls-6" d="M65.11,28.85h-2.6v-2.6a2.36,2.36,0,1,0-4.73,0v2.6h-2.6a2.36,2.36,0,0,0,0,4.73h2.6v2.6a2.36,2.36,0,0,0,4.73,0v-2.6h2.6a2.36,2.36,0,1,0,0-4.73Z"/><path class="cls-6" d="M231.26,145.92h-2.6v-2.6a2.36,2.36,0,1,0-4.73,0v2.6h-2.6a2.36,2.36,0,0,0,0,4.73h2.6v2.6a2.36,2.36,0,0,0,4.73,0v-2.6h2.6a2.36,2.36,0,1,0,0-4.73Z"/><path class="cls-6" d="M12.29,173.92H9.69v-2.6a2.36,2.36,0,1,0-4.73,0v2.6H2.36a2.36,2.36,0,0,0,0,4.73H5v2.6a2.36,2.36,0,0,0,4.73,0v-2.6h2.6a2.36,2.36,0,1,0,0-4.73Z"/><circle class="cls-7" cx="193.09" cy="189.82" r="2.4"/></g></g></g></svg>