<svg xmlns="http://www.w3.org/2000/svg" xmlns:xlink="http://www.w3.org/1999/xlink" viewBox="0 0 232.71 236.22"><defs><style>.cls-1{isolation:isolate;}.cls-2{opacity:0.4;mix-blend-mode:multiply;fill:url(#linear-gradient);}.cls-3,.cls-4{fill:#a8dedb;}.cls-4{stroke:#1f2687;}.cls-4,.cls-5{stroke-miterlimit:10;stroke-width:5px;}.cls-5{fill:none;stroke:#1f268e;}.cls-6{fill:#1f2687;}.cls-7{fill:#1f268e;}</style><linearGradient id="linear-gradient" x1="-1915.44" y1="659.63" x2="-1711.05" y2="659.63" gradientTransform="translate(-1238.75 1517.29) rotate(154.5)" gradientUnits="userSpaceOnUse"><stop offset="0" stop-color="#efa6c2"/><stop offset="1" stop-color="#96cdbd"/></linearGradient></defs><title>Communication</title><g class="cls-1"><g id="Layer_2" data-name="Layer 2"><g id="Layer_1-2" data-name="Layer 1"><path class="cls-2" d="M81.11,178.22A56.58,56.58,0,0,0,96.93,167a67.89,67.89,0,1,0,79.55-65.55A56.69,56.69,0,1,0,72.41,72.59a56.68,56.68,0,1,0,8.69,105.62Z"/><path class="cls-3" d="M194.88,159.47a77.89,77.89,0,0,0,11.78-42.79C205.9,75.28,172.37,41.25,131,39.94a78.25,78.25,0,0,0-80.76,80.73c1.32,41.87,36.08,75.61,78,75.73A77.86,77.86,0,0,0,165.64,187a15.41,15.41,0,0,1,15,.3l10.38,6a4.33,4.33,0,0,0,6.36-4.83l-4.31-17A15.46,15.46,0,0,1,194.88,159.47Z"/><path class="cls-4" d="M24.55,122.07A77.89,77.89,0,0,1,12.77,79.29C13.52,37.88,47.06,3.86,88.45,2.54a78.25,78.25,0,0,1,80.76,80.73c-1.32,41.87-36.08,75.61-78,75.73a77.86,77.86,0,0,1-37.45-9.41,15.41,15.41,0,0,0-15,.3l-10.38,6A4.33,4.33,0,0,1,22.06,151l4.31-17A15.46,15.46,0,0,0,24.55,122.07Z"/><path class="cls-5" d="M110,53H84.54A12.58,12.58,0,0,0,72,65.58V67.9A12.58,12.58,0,0,0,84.54,80.48H97.46A12.58,12.58,0,0,1,110,93.06v2.86A12.58,12.58,0,0,1,97.46,108.5H72"/><polyline class="cls-5" points="91 37.55 91 53 91 108.5 91 123.95"/><path class="cls-5" d="M58.88,152.1h0a78.18,78.18,0,0,0,107.24,34.06,15.41,15.41,0,0,1,15,.3l10.38,5.95a4.34,4.34,0,0,0,6.37-4.82l-4.32-17a15.49,15.49,0,0,1,1.82-12A77.87,77.87,0,0,0,207,123"/><path class="cls-5" d="M206.67,108.5a78.75,78.75,0,0,0-45.5-62.42h0"/><path class="cls-6" d="M25,15.91h-2.6v-2.6a2.36,2.36,0,1,0-4.73,0v2.6h-2.6a2.36,2.36,0,0,0,0,4.73h2.6v2.6a2.36,2.36,0,0,0,4.73,0v-2.6H25a2.36,2.36,0,1,0,0-4.73Z"/><path class="cls-6" d="M211.64,15.91H209v-2.6a2.36,2.36,0,1,0-4.73,0v2.6h-2.6a2.36,2.36,0,0,0,0,4.73h2.6v2.6a2.36,2.36,0,0,0,4.73,0v-2.6h2.6a2.36,2.36,0,1,0,0-4.73Z"/><path class="cls-6" d="M32.37,188.93h-2.6v-2.6a2.36,2.36,0,1,0-4.73,0v2.6h-2.6a2.36,2.36,0,0,0,0,4.73H25v2.6a2.36,2.36,0,0,0,4.73,0v-2.6h2.6a2.36,2.36,0,1,0,0-4.73Z"/><path class="cls-5" d="M77,30.22h0A32.12,32.12,0,0,0,44.88,62.34V67"/><circle class="cls-7" cx="206.97" cy="115.75" r="2.4"/></g></g></g></svg>