<svg xmlns="http://www.w3.org/2000/svg" xmlns:xlink="http://www.w3.org/1999/xlink" viewBox="0 0 262.91 232.09"><defs><style>.cls-1{isolation:isolate;}.cls-2{opacity:0.4;mix-blend-mode:multiply;fill:url(#linear-gradient);}.cls-3,.cls-4{fill:#9faed0;}.cls-4{stroke:#212683;}.cls-4,.cls-5,.cls-6{stroke-miterlimit:10;stroke-width:5px;}.cls-5{fill:none;stroke:#1f268e;}.cls-6{fill:#f2a7c5;stroke:#1f2687;}.cls-7{fill:#1f2687;}.cls-8{fill:#1f268e;}</style><linearGradient id="linear-gradient" x1="31.74" y1="102.57" x2="236.13" y2="102.57" gradientTransform="matrix(0.95, -0.32, 0.32, 0.95, -24.22, 52.22)" gradientUnits="userSpaceOnUse"><stop offset="0" stop-color="#efa6c2"/><stop offset="1" stop-color="#96cdbd"/></linearGradient></defs><title>Contract</title><g class="cls-1"><g id="Layer_2" data-name="Layer 2"><g id="Layer_1-2" data-name="Layer 1"><path class="cls-2" d="M172.44,74.13a56.58,56.58,0,0,0-17.07,9.23,67.89,67.89,0,1,0-86.88,55.47A56.69,56.69,0,1,0,168.32,180a56.68,56.68,0,1,0,4.12-105.9Z"/><path class="cls-3" d="M75.23,132.16v56.31a4.94,4.94,0,0,0,4.93,4.94h147a4.94,4.94,0,0,0,4.94-4.94V39h0L195.92,2.5H80.16a4.94,4.94,0,0,0-4.93,4.94V90.78"/><path class="cls-4" d="M50.54,161.55v56.31a4.94,4.94,0,0,0,4.93,4.94h147a4.94,4.94,0,0,0,4.94-4.94V68.43h0L171.23,31.89H55.47a4.94,4.94,0,0,0-4.93,4.94v83.34"/><polyline class="cls-5" points="207.41 68.43 171.23 68.43 171.23 31.89"/><path class="cls-5" d="M77.44,192.43a4.7,4.7,0,0,0,1.73.83h0"/><path class="cls-5" d="M207.41,193.41h20a4.94,4.94,0,0,0,4.94-4.94V39h0L196.14,2.5h-80"/><path class="cls-5" d="M75.45,31.89V7.44A4.94,4.94,0,0,1,80.38,2.5h21.23"/><line class="cls-5" x1="101.61" y1="193.41" x2="96.89" y2="193.41"/><polyline class="cls-5" points="232.31 39.04 196.14 39.04 196.14 2.5"/><line class="cls-5" x1="66.61" y1="77" x2="104.61" y2="77"/><line class="cls-5" x1="66.61" y1="94.34" x2="162.95" y2="94.34"/><line class="cls-5" x1="66.61" y1="111.67" x2="114.78" y2="111.67"/><line class="cls-5" x1="112.61" y1="77" x2="148.28" y2="77"/><line class="cls-5" x1="130.45" y1="143" x2="197.28" y2="143"/><line class="cls-5" x1="197.28" y1="159.67" x2="158.45" y2="159.67"/><path class="cls-5" d="M75.45,196.6l6.64-6a8,8,0,0,1,11.26.54h0a8,8,0,0,0,10.8.92l12.79-9.86"/><path class="cls-6" d="M14.88,68.79l4.18-2.08a4.67,4.67,0,0,1,6.26,2.1L81.07,181.07l-2.51,9.52a3.79,3.79,0,0,1-5.1,2.54l-9.1-3.75L8.59,77.12a4.67,4.67,0,0,1,2.1-6.26Z"/><path class="cls-5" d="M30.8,79.86,8.45,91a10.71,10.71,0,0,0-4.83,14.35l9.84,19.81"/><rect class="cls-5" x="37.22" y="123.23" width="18.67" height="18.67" transform="translate(147.23 230.58) rotate(153.58)"/><path class="cls-7" d="M25.83,18.41h-2.6v-2.6a2.36,2.36,0,1,0-4.73,0v2.6H15.9a2.36,2.36,0,0,0,0,4.73h2.6v2.6a2.36,2.36,0,0,0,4.73,0v-2.6h2.6a2.36,2.36,0,1,0,0-4.73Z"/><path class="cls-7" d="M260.55,169.31h-2.6v-2.6a2.36,2.36,0,1,0-4.73,0v2.6h-2.6a2.36,2.36,0,0,0,0,4.73h2.6v2.6a2.36,2.36,0,0,0,4.73,0V174h2.6a2.36,2.36,0,1,0,0-4.73Z"/><path class="cls-7" d="M16.15,199.64h-2.6V197a2.36,2.36,0,1,0-4.73,0v2.6H6.22a2.36,2.36,0,0,0,0,4.73h2.6V207a2.36,2.36,0,0,0,4.73,0v-2.6h2.6a2.36,2.36,0,1,0,0-4.73Z"/><circle class="cls-8" cx="108.86" cy="2.5" r="2.4"/><line class="cls-5" x1="196.14" y1="17.92" x2="157.7" y2="17.92"/><line class="cls-5" x1="143.11" y1="17.92" x2="151.95" y2="17.92"/></g></g></g></svg>