<svg xmlns="http://www.w3.org/2000/svg" xmlns:xlink="http://www.w3.org/1999/xlink" viewBox="0 0 258.96 204.87"><defs><style>.cls-1{isolation:isolate;}.cls-2{opacity:0.4;mix-blend-mode:multiply;fill:url(#linear-gradient);}.cls-3,.cls-7{fill:#cec09f;}.cls-4,.cls-8{fill:#9dcc96;}.cls-5{fill:#f2a7c5;}.cls-6{fill:none;stroke:#1f268e;}.cls-6,.cls-7,.cls-8{stroke-miterlimit:10;stroke-width:5px;}.cls-7,.cls-8{stroke:#212683;}.cls-9{fill:#1f2687;}.cls-10{fill:#1f268e;}</style><linearGradient id="linear-gradient" x1="544.67" y1="-394.15" x2="768.11" y2="-394.15" gradientTransform="translate(-96.48 863.85) rotate(-42)" gradientUnits="userSpaceOnUse"><stop offset="0" stop-color="#efa6c2"/><stop offset="1" stop-color="#96cdbd"/></linearGradient></defs><title>Credit Card</title><g class="cls-1"><g id="Layer_2" data-name="Layer 2"><g id="Layer_1-2" data-name="Layer 1"><path class="cls-2" d="M171.63,71.45A53.78,53.78,0,1,0,66.11,62.76a68.07,68.07,0,1,0,62,100.32,68.09,68.09,0,1,0,43.57-91.63Z"/><rect class="cls-3" x="19.16" y="93.54" width="157.75" height="91.43" rx="7.74" ry="7.74"/><circle class="cls-4" cx="135.47" cy="160.31" r="11.81"/><circle class="cls-5" cx="147.28" cy="160.31" r="11.81"/><path class="cls-6" d="M75.72,93.54H27.07a7.91,7.91,0,0,0-7.91,7.91v75.62a7.9,7.9,0,0,0,7.91,7.9H41.63"/><path class="cls-6" d="M56.13,185H169a7.9,7.9,0,0,0,7.91-7.9V115.24"/><polyline class="cls-6" points="176.91 115.24 176.91 125.05 19.16 125.05 19.16 106.52 75.72 106.52"/><circle class="cls-6" cx="135.32" cy="160.31" r="11.81"/><circle class="cls-6" cx="147.13" cy="160.31" r="11.81"/><line class="cls-6" x1="28.02" y1="148.5" x2="59.29" y2="148.5"/><line class="cls-6" x1="28.02" y1="164.3" x2="77.43" y2="164.3"/><rect class="cls-7" x="75.72" y="23.81" width="157.75" height="91.43" rx="7.74" ry="7.74"/><line class="cls-6" x1="88.96" y1="85.91" x2="120.23" y2="85.91"/><line class="cls-6" x1="88.96" y1="101.71" x2="138.37" y2="101.71"/><line class="cls-6" x1="88.96" y1="69.53" x2="112.51" y2="69.53"/><line class="cls-6" x1="124.86" y1="69.53" x2="148.41" y2="69.53"/><line class="cls-6" x1="160.76" y1="69.53" x2="184.32" y2="69.53"/><line class="cls-6" x1="196.67" y1="69.53" x2="220.22" y2="69.53"/><rect class="cls-8" x="89.85" y="34.17" width="31.03" height="22.65" rx="4.09" ry="4.09"/><line class="cls-6" x1="105.37" y1="34.17" x2="105.37" y2="56.82"/><line class="cls-6" x1="120.88" y1="45.5" x2="89.85" y2="45.5"/><ellipse class="cls-8" cx="201.57" cy="45.5" rx="17.25" ry="9.72"/><path class="cls-9" d="M51.61,28.78H49v-2.6a2.36,2.36,0,1,0-4.73,0v2.6h-2.6a2.36,2.36,0,0,0,0,4.73h2.6v2.6a2.36,2.36,0,0,0,4.73,0v-2.6h2.6a2.36,2.36,0,1,0,0-4.73Z"/><path class="cls-9" d="M209,5h-2.6V2.36a2.36,2.36,0,1,0-4.73,0V5H199a2.36,2.36,0,0,0,0,4.73h2.6v2.6a2.36,2.36,0,0,0,4.73,0V9.69H209A2.36,2.36,0,1,0,209,5Z"/><path class="cls-9" d="M220.74,169.27h-2.6v-2.6a2.36,2.36,0,1,0-4.73,0v2.6h-2.6a2.36,2.36,0,0,0,0,4.73h2.6v2.6a2.36,2.36,0,0,0,4.73,0V174h2.6a2.36,2.36,0,1,0,0-4.73Z"/><circle class="cls-10" cx="49.04" cy="184.97" r="2.4"/><line class="cls-6" x1="199.46" y1="95.3" x2="199.46" y2="115.25"/><line class="cls-6" x1="199.46" y1="83.21" x2="199.46" y2="90.71"/></g></g></g></svg>