<svg xmlns="http://www.w3.org/2000/svg" xmlns:xlink="http://www.w3.org/1999/xlink" viewBox="0 0 258.96 215.99"><defs><style>.cls-1{isolation:isolate;}.cls-2{opacity:0.4;mix-blend-mode:multiply;fill:url(#linear-gradient);}.cls-3{fill:#a8dedb;}.cls-3,.cls-4{stroke:#1f2687;}.cls-3,.cls-4,.cls-5{stroke-miterlimit:10;stroke-width:5px;}.cls-4{fill:#f2a7c5;}.cls-5{fill:none;stroke:#1f268e;}.cls-6{fill:#1f2687;}.cls-7{fill:#1f268e;}</style><linearGradient id="linear-gradient" x1="358.58" y1="989.51" x2="582.01" y2="989.51" gradientTransform="translate(-883.99 -292.88) rotate(-42)" gradientUnits="userSpaceOnUse"><stop offset="0" stop-color="#efa6c2"/><stop offset="1" stop-color="#96cdbd"/></linearGradient></defs><title>Globe</title><g class="cls-1"><g id="Layer_2" data-name="Layer 2"><g id="Layer_1-2" data-name="Layer 1"><path class="cls-2" d="M171.63,67.57A53.78,53.78,0,1,0,66.11,58.88a68.07,68.07,0,1,0,62,100.32,68.09,68.09,0,1,0,43.57-91.63Z"/><path class="cls-3" d="M37.56,62.74a98,98,0,0,0,81.31,150.73h2.58a98,98,0,0,0,0-196h-2.66A97.67,97.67,0,0,0,48.88,48.24"/><circle class="cls-4" cx="120.16" cy="115.49" r="69.22"/><path class="cls-5" d="M70,163.24h0C79.68,192.68,98,212.74,119,213.48h2.37c21-.74,39.28-20.8,48.92-50.23"/><path class="cls-5" d="M70,67.75h0c9.61-29.36,27.81-49.4,48.78-50.22h2.66c21,.82,39.16,20.85,48.78,50.22"/><line class="cls-5" x1="120.16" y1="213.49" x2="120.16" y2="184.71"/><line class="cls-5" x1="120.16" y1="46.28" x2="120.16" y2="17.49"/><line class="cls-5" x1="120.16" y1="88.43" x2="120.16" y2="73.23"/><line class="cls-5" x1="120.16" y1="158.28" x2="120.16" y2="143.08"/><line class="cls-5" x1="50.94" y1="115.49" x2="22.16" y2="115.49"/><line class="cls-5" x1="218.15" y1="115.49" x2="189.38" y2="115.49"/><line class="cls-5" x1="113.8" y1="115.49" x2="126.51" y2="115.49"/><path class="cls-4" d="M138.9,88.44H113.8a12.39,12.39,0,0,0-12.39,12.39v2.28a12.39,12.39,0,0,0,12.39,12.39h12.72a12.39,12.39,0,0,1,12.39,12.39v2.82a12.38,12.38,0,0,1-12.39,12.38h-25.1"/><polyline class="cls-4" points="120.16 158.28 120.16 143.08 120.16 88.43 120.16 73.23"/><path class="cls-6" d="M34.45,19.94h-2.6v-2.6a2.36,2.36,0,1,0-4.73,0v2.6h-2.6a2.36,2.36,0,0,0,0,4.73h2.6v2.6a2.36,2.36,0,0,0,4.73,0v-2.6h2.6a2.36,2.36,0,1,0,0-4.73Z"/><path class="cls-6" d="M208.73,20.2h-2.6V17.6a2.36,2.36,0,1,0-4.73,0v2.6h-2.6a2.36,2.36,0,0,0,0,4.73h2.6v2.6a2.36,2.36,0,0,0,4.73,0v-2.6h2.6a2.36,2.36,0,1,0,0-4.73Z"/><path class="cls-6" d="M34.45,202.36h-2.6v-2.6a2.36,2.36,0,1,0-4.73,0v2.6h-2.6a2.36,2.36,0,0,0,0,4.73h2.6v2.6a2.36,2.36,0,0,0,4.73,0v-2.6h2.6a2.36,2.36,0,1,0,0-4.73Z"/><circle class="cls-7" cx="42.53" cy="54.8" r="2.4"/><line class="cls-5" x1="82.82" y1="57.2" x2="82.82" y2="103.49"/><path class="cls-5" d="M82.82,113"/><line class="cls-5" x1="82.82" y1="112.99" x2="82.82" y2="126.99"/></g></g></g></svg>