<svg xmlns="http://www.w3.org/2000/svg" xmlns:xlink="http://www.w3.org/1999/xlink" viewBox="0 0 219.5 235.99"><defs><style>.cls-1{isolation:isolate;}.cls-2{opacity:0.4;mix-blend-mode:multiply;fill:url(#linear-gradient);}.cls-3{fill:#1f2687;}.cls-4{fill:#cec09f;stroke:#212683;}.cls-4,.cls-5,.cls-6{stroke-miterlimit:10;stroke-width:5px;}.cls-5{fill:#f2a7c5;stroke:#1f2687;}.cls-6{fill:none;stroke:#1f268e;}.cls-7{fill:#1f268e;}</style><linearGradient id="linear-gradient" x1="7.56" y1="118" x2="209.27" y2="118" gradientUnits="userSpaceOnUse"><stop offset="0" stop-color="#efa6c2"/><stop offset="1" stop-color="#96cdbd"/></linearGradient></defs><title>Gold</title><g class="cls-1"><g id="Layer_2" data-name="Layer 2"><g id="Layer_1-2" data-name="Layer 1"><path class="cls-2" d="M175.68,82A50.06,50.06,0,1,0,87.36,44.94,70.78,70.78,0,0,0,59.17,183.28c0,.88-.07,1.76-.07,2.65a50.06,50.06,0,1,0,99.67-6.6h.45A50.06,50.06,0,0,0,175.68,82Z"/><path class="cls-3" d="M44.17,8h-2.6V5.35a2.36,2.36,0,1,0-4.73,0V8h-2.6a2.36,2.36,0,0,0,0,4.73h2.6v2.6a2.36,2.36,0,0,0,4.73,0v-2.6h2.6a2.36,2.36,0,1,0,0-4.73Z"/><path class="cls-3" d="M29.2,212.89H26.6v-2.6a2.36,2.36,0,1,0-4.73,0v2.6h-2.6a2.36,2.36,0,0,0,0,4.73h2.6v2.6a2.36,2.36,0,0,0,4.73,0v-2.6h2.6a2.36,2.36,0,1,0,0-4.73Z"/><path class="cls-4" d="M96.94,121.95a4.43,4.43,0,0,0-3.68-2H47a4.43,4.43,0,0,0-3.68,2L31.25,139.89a4.43,4.43,0,0,0,3.68,6.9h70.38a4.43,4.43,0,0,0,3.68-6.9Z"/><path class="cls-4" d="M176.19,121.95a4.43,4.43,0,0,0-3.68-2H126.23a4.43,4.43,0,0,0-3.68,2l-12.05,17.94a4.43,4.43,0,0,0,3.68,6.9h70.38a4.43,4.43,0,0,0,3.68-6.9Z"/><path class="cls-4" d="M136.56,95.15a4.43,4.43,0,0,0-3.68-2H86.61a4.43,4.43,0,0,0-3.68,2L70.88,113.09a4.43,4.43,0,0,0,3.68,6.9h70.38a4.43,4.43,0,0,0,3.68-6.9Z"/><path class="cls-5" d="M117,164H217a17.21,17.21,0,0,0-17.2-17.2H19.7A17.21,17.21,0,0,0,2.5,164h100"/><line class="cls-6" x1="109.75" y1="51.49" x2="109.75" y2="69.49"/><line class="cls-6" x1="69.26" y1="65.84" x2="81.92" y2="78.64"/><line class="cls-6" x1="150.23" y1="65.84" x2="137.57" y2="78.64"/><path class="cls-3" d="M214.63,56.15H212v-2.6a2.36,2.36,0,1,0-4.73,0v2.6h-2.6a2.36,2.36,0,0,0,0,4.73h2.6v2.6a2.36,2.36,0,0,0,4.73,0v-2.6h2.6a2.36,2.36,0,1,0,0-4.73Z"/><line class="cls-6" x1="36.94" y1="133.39" x2="67.44" y2="133.39"/><line class="cls-6" x1="71.94" y1="133.39" x2="80.69" y2="133.39"/><circle class="cls-7" cx="109.75" cy="163.99" r="2.4"/></g></g></g></svg>