<svg xmlns="http://www.w3.org/2000/svg" xmlns:xlink="http://www.w3.org/1999/xlink" viewBox="0 0 228.95 233.62"><defs><style>.cls-1{isolation:isolate;}.cls-2{opacity:0.4;mix-blend-mode:multiply;fill:url(#linear-gradient);}.cls-3{fill:#9dcc96;stroke:#212683;}.cls-3,.cls-4,.cls-5{stroke-miterlimit:10;stroke-width:5px;}.cls-4{fill:#f2a7c5;stroke:#1f2687;}.cls-5{fill:none;stroke:#1f268e;}.cls-6{fill:#1f2687;}.cls-7{fill:#1f268e;}</style><linearGradient id="linear-gradient" y1="114.72" x2="195.99" y2="114.72" gradientUnits="userSpaceOnUse"><stop offset="0" stop-color="#efa6c2"/><stop offset="1" stop-color="#96cdbd"/></linearGradient></defs><title>Income</title><g class="cls-1"><g id="Layer_2" data-name="Layer 2"><g id="Layer_1-2" data-name="Layer 1"><path class="cls-2" d="M196,65.82a64.61,64.61,0,0,0-122.81-28A48.35,48.35,0,1,0,37.5,126.38a78.05,78.05,0,1,0,141.16-16.56A64.35,64.35,0,0,0,196,65.82Z"/><rect class="cls-3" x="12.66" y="103.4" width="201.67" height="103.03" rx="2.82" ry="2.82"/><path class="cls-4" d="M189,130.87h-1.42c-.31,0-.61,0-.91,0l-.36,0-.73-.1h-.1l-.11,0h0l-.06,0a10.41,10.41,0,0,1-1.06-.26l-.06,0c-.29-.09-.57-.19-.83-.3l-.22-.1c-.22-.1-.43-.21-.63-.32l-.18-.1a6.69,6.69,0,0,1-.62-.42l-.1-.07-.19-.16-.26-.24-.17-.17a4.19,4.19,0,0,1-.31-.38l-.11-.17a3.46,3.46,0,0,1-.2-.35l-.06-.11a3,3,0,0,1-.16-.48l0-.13a2.78,2.78,0,0,1-.06-.52,3.87,3.87,0,0,0,0-.47h0a3,3,0,0,0-.23-.72l0-.07c0-.09-.1-.18-.15-.27l-.07-.12-.17-.23-.12-.15-.17-.19-.19-.19-.15-.14-.34-.27-.05,0c-.15-.11-.31-.22-.48-.32a8,8,0,0,0-1.09-.54l-.08,0-.51-.19-.14,0-.48-.14-.17,0L175,122l-.19,0-.49-.08-.21,0-.48,0c-.33,0-.65,0-1,0H54.37a12.18,12.18,0,0,0-2,.17h0a10.86,10.86,0,0,0-1.17.27h0A7.38,7.38,0,0,0,47.92,124l0,0-.27.3,0,0c-.08.1-.15.21-.22.31l0,.05a3.46,3.46,0,0,0-.18.33v0a3,3,0,0,0-.25.77h0a3.87,3.87,0,0,0,0,.46,2.77,2.77,0,0,1-.06.53l0,.12a3,3,0,0,1-.16.5l0,.07a3.47,3.47,0,0,1-.23.42l-.07.12a4.2,4.2,0,0,1-.34.43l-.09.1a5.07,5.07,0,0,1-.39.36l-.07.06-.23.17c-.15.11-.3.22-.47.32l-.33.19-.42.21-.45.2-.36.13-.51.17-.06,0-.47.12c-.18,0-.36.09-.54.12l-.18,0-.73.1-.36,0c-.3,0-.6,0-.91,0H37.94a11.66,11.66,0,0,0-3.21.44c-2.54.73-4.31,2.29-4.31,4.1v39c0,2.51,3.37,4.54,7.52,4.54h1.42c.31,0,.61,0,.91,0l.36,0,.73.1h.1l.11,0h0l.06,0a10.4,10.4,0,0,1,1.06.26l.06,0c.29.09.57.19.83.3l.22.1c.22.1.43.21.63.32l.18.1a6.75,6.75,0,0,1,.62.42l.1.07.19.16.26.24.17.17a4.19,4.19,0,0,1,.31.38l.11.17a3.46,3.46,0,0,1,.2.35l.06.11a3,3,0,0,1,.16.48l0,.13a2.8,2.8,0,0,1,.06.52,3.87,3.87,0,0,0,0,.47h0a3,3,0,0,0,.23.72l0,.08c0,.09.1.18.15.27l.08.12.17.23.12.16.17.19.2.19.15.14.34.28.05,0c.15.11.31.22.48.32a8,8,0,0,0,1.09.54l.08,0,.51.19.14,0,.49.14.17,0,.49.11.19,0,.5.08.2,0,.49,0c.32,0,.65,0,1,0H172.61a12.19,12.19,0,0,0,2-.17h0a10.84,10.84,0,0,0,1.17-.27h0a7.38,7.38,0,0,0,3.17-1.76l0,0,.27-.3,0,0c.08-.1.15-.21.22-.31l0,0a3.44,3.44,0,0,0,.18-.33v0a3,3,0,0,0,.25-.77h0a3.87,3.87,0,0,0,0-.46,2.77,2.77,0,0,1,.06-.53l0-.12a3,3,0,0,1,.16-.5l0-.07a3.47,3.47,0,0,1,.23-.42l.07-.12a4.2,4.2,0,0,1,.34-.43l.09-.1a5.08,5.08,0,0,1,.39-.36l.07-.06.23-.17c.15-.11.3-.22.47-.32l.33-.19.42-.21.45-.2.35-.13.51-.18.06,0,.47-.12c.18,0,.36-.09.55-.12l.18,0,.73-.1.36,0c.3,0,.6,0,.91,0H189a11.66,11.66,0,0,0,3.2-.44c2.55-.73,4.32-2.29,4.32-4.1v-39C196.56,132.9,193.19,130.87,189,130.87Z"/><path class="cls-5" d="M128.09,133.63H108.54a9.65,9.65,0,0,0-9.65,9.65v1.78a9.65,9.65,0,0,0,9.65,9.65h9.91a9.65,9.65,0,0,1,9.65,9.65v2.19a9.65,9.65,0,0,1-9.65,9.65H98.89"/><polyline class="cls-5" points="113.49 121.78 113.49 133.63 113.49 176.19 113.49 188.04"/><line class="cls-5" x1="66.76" y1="188.04" x2="66.76" y2="162.16"/><line class="cls-5" x1="66.76" y1="147.66" x2="66.76" y2="121.78"/><line class="cls-5" x1="160.23" y1="121.78" x2="160.23" y2="188.04"/><polyline class="cls-4" points="138.49 63.24 138.49 103.39 103.35 103.39 103.35 67.47"/><path class="cls-4" d="M138.49,39.13V27.51a3.25,3.25,0,0,1,3.25-3.25h31.89v79.14H138.49V63.24"/><path class="cls-4" d="M176.56,2.5h29.28a2.93,2.93,0,0,1,2.93,2.93v98a0,0,0,0,1,0,0H173.63a0,0,0,0,1,0,0v-98A2.93,2.93,0,0,1,176.56,2.5Z"/><path class="cls-4" d="M156.06,51.19,124,29.18v6C112.79,36.52,57.36,45.7,38.88,100a.93.93,0,0,0,1.49,1c9.77-8.85,45.75-38.62,83.6-34.2V73.2Z"/><path class="cls-6" d="M43.79,29h-2.6v-2.6a2.36,2.36,0,1,0-4.73,0V29h-2.6a2.36,2.36,0,0,0,0,4.73h2.6v2.6a2.36,2.36,0,0,0,4.73,0v-2.6h2.6a2.36,2.36,0,1,0,0-4.73Z"/><path class="cls-6" d="M226.59,36.29H224v-2.6a2.36,2.36,0,1,0-4.73,0v2.6h-2.6a2.36,2.36,0,0,0,0,4.73h2.6v2.6a2.36,2.36,0,0,0,4.73,0V41h2.6a2.36,2.36,0,1,0,0-4.73Z"/><path class="cls-6" d="M17.62,223.93H15v-2.6a2.36,2.36,0,1,0-4.73,0v2.6H7.7a2.36,2.36,0,0,0,0,4.73h2.6v2.6a2.36,2.36,0,0,0,4.73,0v-2.6h2.6a2.36,2.36,0,1,0,0-4.73Z"/><circle class="cls-7" cx="66.76" cy="154.91" r="2.4"/><line class="cls-5" x1="191.2" y1="2.5" x2="191.2" y2="48.69"/><line class="cls-5" x1="191.2" y1="57.19" x2="191.2" y2="68.69"/></g></g></g></svg>