<svg xmlns="http://www.w3.org/2000/svg" xmlns:xlink="http://www.w3.org/1999/xlink" viewBox="0 0 229.85 228.78"><defs><style>.cls-1{isolation:isolate;}.cls-2{opacity:0.4;mix-blend-mode:multiply;fill:url(#linear-gradient);}.cls-3{fill:#f2a7c5;}.cls-3,.cls-4{stroke:#1f2687;}.cls-3,.cls-4,.cls-5{stroke-miterlimit:10;stroke-width:5px;}.cls-4{fill:#a8dedb;}.cls-5{fill:none;stroke:#1f268e;}.cls-6{fill:#1f2687;}.cls-7{fill:#1f268e;}</style><linearGradient id="linear-gradient" x1="-1102.4" y1="-848.65" x2="-898.01" y2="-848.65" gradientTransform="translate(1031.72 -831.18) rotate(-86.2)" gradientUnits="userSpaceOnUse"><stop offset="0" stop-color="#efa6c2"/><stop offset="1" stop-color="#96cdbd"/></linearGradient></defs><title>Invest</title><g class="cls-1"><g id="Layer_2" data-name="Layer 2"><g id="Layer_1-2" data-name="Layer 1"><path class="cls-2" d="M102.58,64a56.58,56.58,0,0,0,2,19.29,67.89,67.89,0,1,0,18.23,101.45A56.69,56.69,0,1,0,199,108.07,56.68,56.68,0,1,0,102.58,64Z"/><path class="cls-3" d="M169.69,226.28a21,21,0,0,0,1.34-5.93,21.62,21.62,0,0,0-7.21-17.93,29.94,29.94,0,0,1-6.49-8.11,21.66,21.66,0,0,0-27.06-9.91,45.45,45.45,0,0,1-22.59,3,19.13,19.13,0,0,0-2.41-.16,18.59,18.59,0,0,0-11.85,4.25A47.9,47.9,0,0,1,82,198.71a21.65,21.65,0,0,0-13.06,21.54,21.24,21.24,0,0,0,1.34,6"/><path class="cls-4" d="M112.74,3a43,43,0,1,0,14.5,0"/><path class="cls-3" d="M53.79,93.42c-3.24,16.28,2.36,35,16.32,49s32.7,19.56,49,16.32c3.24-16.28-2.36-35-16.32-49S70.07,90.18,53.79,93.42Z"/><polyline class="cls-5" points="119.09 158.72 80.67 120.29 72.37 121.52"/><line class="cls-5" x1="98.11" y1="137.74" x2="97.35" y2="122.93"/><path class="cls-3" d="M186.18,93.42c3.24,16.28-2.36,35-16.32,49s-32.7,19.56-49,16.32c-3.24-16.28,2.36-35,16.32-49S169.9,90.18,186.18,93.42Z"/><polyline class="cls-5" points="120.88 158.72 159.3 120.29 167.6 121.52"/><line class="cls-5" x1="141.86" y1="137.74" x2="142.62" y2="122.93"/><line class="cls-5" x1="46.99" y1="226.28" x2="192.99" y2="226.28"/><polyline class="cls-5" points="119.99 187.29 119.99 187.21 119.99 139.51 119.99 139.5 119.99 88.35"/><line class="cls-5" x1="119.99" y1="71.94" x2="119.99" y2="68.02"/><path class="cls-4" d="M131.63,28.55H116a7.69,7.69,0,0,0-7.69,7.69v1.42A7.69,7.69,0,0,0,116,45.35h7.9A7.69,7.69,0,0,1,131.63,53V54.8a7.69,7.69,0,0,1-7.69,7.69H108.34"/><polyline class="cls-4" points="119.98 19.1 119.98 28.55 119.98 62.49 119.98 71.94"/><path class="cls-6" d="M27.17,38h-2.6v-2.6a2.36,2.36,0,1,0-4.73,0V38h-2.6a2.36,2.36,0,0,0,0,4.73h2.6v2.6a2.36,2.36,0,0,0,4.73,0v-2.6h2.6a2.36,2.36,0,1,0,0-4.73Z"/><path class="cls-6" d="M218,151.33h-2.6v-2.6a2.36,2.36,0,1,0-4.73,0v2.6h-2.6a2.36,2.36,0,0,0,0,4.73h2.6v2.6a2.36,2.36,0,0,0,4.73,0v-2.6H218a2.36,2.36,0,1,0,0-4.73Z"/><path class="cls-6" d="M12.29,158.66H9.69v-2.6a2.36,2.36,0,1,0-4.73,0v2.6H2.36a2.36,2.36,0,0,0,0,4.73H5V166a2.36,2.36,0,0,0,4.73,0v-2.6h2.6a2.36,2.36,0,1,0,0-4.73Z"/><circle class="cls-7" cx="119.99" cy="2.4" r="2.4"/><line class="cls-5" x1="69.67" y1="212.77" x2="127.71" y2="212.77"/><line class="cls-5" x1="130.96" y1="212.77" x2="139.21" y2="212.77"/></g></g></g></svg>