<svg xmlns="http://www.w3.org/2000/svg" xmlns:xlink="http://www.w3.org/1999/xlink" viewBox="0 0 217.84 222.3"><defs><style>.cls-1{isolation:isolate;}.cls-2{opacity:0.4;mix-blend-mode:multiply;fill:url(#linear-gradient);}.cls-3{fill:#a8dedb;}.cls-4{fill:#9dcc96;}.cls-5,.cls-6{fill:none;}.cls-5{stroke:#1f2687;}.cls-5,.cls-6,.cls-7{stroke-miterlimit:10;stroke-width:5px;}.cls-6{stroke:#1f268e;}.cls-7{fill:#cec09f;stroke:#212683;}.cls-8{fill:#1f2687;}.cls-9{fill:#1f268e;}</style><linearGradient id="linear-gradient" x1="15.45" y1="99.95" x2="198.42" y2="99.95" gradientUnits="userSpaceOnUse"><stop offset="0" stop-color="#efa6c2"/><stop offset="1" stop-color="#96cdbd"/></linearGradient></defs><title>Loan</title><g class="cls-1"><g id="Layer_2" data-name="Layer 2"><g id="Layer_1-2" data-name="Layer 1"><path class="cls-2" d="M172.13,115.46a68.39,68.39,0,0,0,3.27-20.94c0-2-.1-4-.27-5.9a45.74,45.74,0,1,0-62.3-62.3c-1.94-.17-3.91-.27-5.9-.27a68.45,68.45,0,0,0-66.59,84.36,45.74,45.74,0,1,0,62,60.69,45.74,45.74,0,1,0,69.78-55.65Z"/><circle class="cls-3" cx="112.29" cy="69.54" r="66.33"/><path class="cls-4" d="M162.58,143.42l35-37.71A10.83,10.83,0,0,1,214,119.77l-37.48,47.86a30.36,30.36,0,0,1-23.9,11.64H120.54l-14.5.07a36,36,0,0,0-21.33,8.56l-4.51,3.83-.21.18-35.56-41.6a34.44,34.44,0,0,1,34.44-33.94H99.45a7.17,7.17,0,0,1,7.16,7.17,7.18,7.18,0,0,0,7.17,7.17H150.2a12.37,12.37,0,1,1,0,24.74H117"/><path class="cls-5" d="M138.62,130.68A66.81,66.81,0,1,0,66.8,118.16"/><path class="cls-6" d="M43.44,150.27a34.44,34.44,0,0,1,34.44-33.94H98.47a7.17,7.17,0,0,1,7.16,7.17,7.18,7.18,0,0,0,7.17,7.17h36.42a12.37,12.37,0,1,1,0,24.74H116"/><path class="cls-6" d="M79,191.87l.21-.18,4.51-3.83a36,36,0,0,1,21.33-8.56"/><path class="cls-6" d="M161.59,143.38l35-37.71A10.83,10.83,0,0,1,213,119.73l-37.48,47.86a30.36,30.36,0,0,1-23.9,11.64H119.55"/><rect class="cls-7" x="7.36" y="162.16" width="74.92" height="38.85" rx="6.9" ry="6.9" transform="translate(152.96 28.99) rotate(49.19)"/><path class="cls-5" d="M130.38,43.18H106.16A12,12,0,0,0,94.21,55.13v2.2a12,12,0,0,0,11.95,11.95h12.27a12,12,0,0,1,11.95,11.95V84A12,12,0,0,1,118.43,95.9H94.21"/><polyline class="cls-5" points="112.3 110.57 112.3 95.9 112.3 43.18 112.3 28.51"/><path class="cls-8" d="M30.72,22.78h-2.6v-2.6a2.36,2.36,0,1,0-4.73,0v2.6H20.8a2.36,2.36,0,0,0,0,4.73h2.6v2.6a2.36,2.36,0,0,0,4.73,0v-2.6h2.6a2.36,2.36,0,1,0,0-4.73Z"/><path class="cls-8" d="M213,71.55h-2.6V69a2.36,2.36,0,1,0-4.73,0v2.6H203a2.36,2.36,0,0,0,0,4.73h2.6v2.6a2.36,2.36,0,0,0,4.73,0v-2.6H213a2.36,2.36,0,1,0,0-4.73Z"/><path class="cls-8" d="M12.29,96.89H9.69v-2.6a2.36,2.36,0,1,0-4.73,0v2.6H2.36a2.36,2.36,0,0,0,0,4.73H5v2.6a2.36,2.36,0,0,0,4.73,0v-2.6h2.6a2.36,2.36,0,1,0,0-4.73Z"/><line class="cls-6" x1="74.59" y1="14.16" x2="74.59" y2="66.59"/><line class="cls-6" x1="74.59" y1="73.92" x2="74.59" y2="84.95"/><circle class="cls-9" cx="112.3" cy="179.23" r="2.4"/></g></g></g></svg>