<svg xmlns="http://www.w3.org/2000/svg" xmlns:xlink="http://www.w3.org/1999/xlink" viewBox="0 0 225.55 227.35"><defs><style>.cls-1{isolation:isolate;}.cls-2{opacity:0.4;mix-blend-mode:multiply;fill:url(#linear-gradient);}.cls-3,.cls-4{fill:#a8dedb;}.cls-3,.cls-4,.cls-5{stroke:#1f2687;}.cls-3,.cls-4,.cls-5,.cls-6{stroke-miterlimit:10;}.cls-3,.cls-6{stroke-width:5px;}.cls-4,.cls-5{stroke-width:6px;}.cls-5,.cls-6{fill:none;}.cls-6{stroke:#1f268e;}.cls-7{fill:#1f268e;}.cls-8{fill:#1f2687;}</style><linearGradient id="linear-gradient" x1="197.29" y1="630.67" x2="427.75" y2="630.67" gradientTransform="translate(601.2 643.81) rotate(163.57)" gradientUnits="userSpaceOnUse"><stop offset="0" stop-color="#efa6c2"/><stop offset="1" stop-color="#96cdbd"/></linearGradient></defs><title>Management</title><g class="cls-1"><g id="Layer_2" data-name="Layer 2"><g id="Layer_1-2" data-name="Layer 1"><path class="cls-2" d="M223.13,59.14a58.63,58.63,0,0,0-65.84-41.26,62.06,62.06,0,0,0-7,1.61,57.67,57.67,0,0,0-9.24,3.59c-1.06.52-2.1,1.06-3.12,1.65A54.62,54.62,0,0,0,132.82,28a58.62,58.62,0,0,0-18.18,21.17,59.07,59.07,0,0,0-2.43,5.45c-.27.7-.53,1.41-.77,2.12a58.9,58.9,0,0,0-2,7.42c-.11.56-.22,1.12-.32,1.69a57.68,57.68,0,0,0-.83,10c0,.42,0,.86,0,1.29,0,.21,0,.42,0,.63-.13-.21-.26-.42-.4-.63-.25-.4-.52-.79-.79-1.18a58.35,58.35,0,0,0-8.65-10.06A57.74,57.74,0,0,0,92,60.66a57.09,57.09,0,0,0-11.07-6c-.88-.37-1.76-.71-2.66-1a58.53,58.53,0,0,0-10-2.59h0a57.61,57.61,0,0,0-15.76-.48,60.29,60.29,0,0,0-10.44,2.08,58.62,58.62,0,0,0,6.91,114,0,0,0,0,0,.05,0,54.44,54.44,0,0,0,5.72.68c0,.24,0,.48,0,.72a58.63,58.63,0,0,0,117.22,2.42c0-1.28,0-2.56,0-3.85a57.93,57.93,0,0,0-1.3-10.31c-.3-1.4-.66-2.79-1.07-4.19a58.47,58.47,0,0,0-4.14-10.33c0-.06-.06-.12-.08-.17a57.87,57.87,0,0,0-4.76-7.64c1,.11,2,.19,3,.25a59.58,59.58,0,0,0,7.67-.09c1.46-.09,2.9-.27,4.37-.49l.39-.06a59.84,59.84,0,0,0,7.44-1.67,59.11,59.11,0,0,0,9-3.46,58.44,58.44,0,0,0,14.38-9.84,56.86,56.86,0,0,0,4.49-4.7,58.59,58.59,0,0,0,11.79-54.8Zm-105,51.14-.86-.07c0-1.12,0-2.25,0-3.38.64,1,1.31,2.06,2,3,.12.2.26.38.4.57Q118.88,110.34,118.1,110.28Z"/><circle class="cls-3" cx="109.92" cy="104.33" r="67.33"/><path class="cls-4" d="M128.16,78H103.74a12,12,0,0,0-12,12v2.22a12,12,0,0,0,12,12h12.37a12,12,0,0,1,12,12v2.74a12,12,0,0,1-12,12H91.69"/><polyline class="cls-5" points="109.92 63.22 109.92 78.01 109.92 131.16 109.92 145.95"/><path class="cls-6" d="M93.21,13.73a92,92,0,0,0,0,181.2"/><polyline class="cls-6" points="77.94 2.09 96.08 13.96 80.35 28.88"/><path class="cls-6" d="M126.63,13.73a92,92,0,0,1,75.72,83.35"/><path class="cls-6" d="M126.63,194.93a92,92,0,0,0,75.72-83.35"/><polyline class="cls-6" points="141.91 206.56 123.77 194.69 139.49 179.77"/><circle class="cls-7" cx="202.35" cy="104.33" r="2.4"/><path class="cls-6" d="M97.92,57.93h-2a30,30,0,0,0-30,30h0"/><path class="cls-8" d="M28.18,18.69h-2.6v-2.6a2.36,2.36,0,1,0-4.73,0v2.6h-2.6a2.36,2.36,0,0,0,0,4.73h2.6V26a2.36,2.36,0,0,0,4.73,0v-2.6h2.6a2.36,2.36,0,1,0,0-4.73Z"/><path class="cls-8" d="M207.31,26h-2.6v-2.6a2.36,2.36,0,1,0-4.73,0V26h-2.6a2.36,2.36,0,0,0,0,4.73H200v2.6a2.36,2.36,0,0,0,4.73,0v-2.6h2.6a2.36,2.36,0,1,0,0-4.73Z"/><path class="cls-8" d="M25.2,206.93H22.6v-2.6a2.36,2.36,0,1,0-4.73,0v2.6h-2.6a2.36,2.36,0,0,0,0,4.73h2.6v2.6a2.36,2.36,0,0,0,4.73,0v-2.6h2.6a2.36,2.36,0,1,0,0-4.73Z"/></g></g></g></svg>