<svg xmlns="http://www.w3.org/2000/svg" xmlns:xlink="http://www.w3.org/1999/xlink" viewBox="0 0 223.19 222.24"><defs><style>.cls-1{isolation:isolate;}.cls-2{opacity:0.4;mix-blend-mode:multiply;fill:url(#linear-gradient);}.cls-3{fill:#9dcc96;}.cls-3,.cls-6{stroke:#212683;}.cls-3,.cls-4,.cls-5,.cls-6{stroke-miterlimit:10;stroke-width:5px;}.cls-4{fill:none;stroke:#1f268e;}.cls-5{fill:#f2a7c5;stroke:#1f2687;}.cls-6{fill:#cec09f;}.cls-7{fill:#1f2687;}.cls-8{fill:#1f268e;}</style><linearGradient id="linear-gradient" x1="691.45" y1="543.81" x2="921.91" y2="543.81" gradientTransform="translate(-429.38 -704.54) rotate(21.29)" gradientUnits="userSpaceOnUse"><stop offset="0" stop-color="#efa6c2"/><stop offset="1" stop-color="#96cdbd"/></linearGradient></defs><title>Mobile Banking</title><g class="cls-1"><g id="Layer_2" data-name="Layer 2"><g id="Layer_1-2" data-name="Layer 1"><path class="cls-2" d="M207.58,109.25l0,0a54,54,0,0,0-4.11-4l.45-.57a59.53,59.53,0,0,0,3.66-5.18A58.63,58.63,0,0,0,112.63,31c-.82,1-1.6,2-2.35,3.05A57.68,57.68,0,0,0,105,43c-.62,1.29-1.19,2.61-1.72,4a58.08,58.08,0,0,0-3,10.7,1.29,1.29,0,0,0,0,.19,57.78,57.78,0,0,0-.91,9c-.73-.7-1.47-1.38-2.24-2a58.45,58.45,0,0,0-6.12-4.63c-1.21-.81-2.46-1.56-3.75-2.28l-.35-.19a59,59,0,0,0-6.91-3.23A58.33,58.33,0,0,0,53.3,50.66a57.61,57.61,0,0,0-6.43,1,58.62,58.62,0,0,0-16,109.06,60.83,60.83,0,0,0,6.49,3,58.55,58.55,0,0,0,9.51,2.81,58.7,58.7,0,0,0,44-8.5,58.24,58.24,0,0,0,14.17-13.14c.39-.5.77-1,1.15-1.54-.07.72-.13,1.44-.16,2.16A58.6,58.6,0,0,0,133.75,199a59.6,59.6,0,0,0,9.53,4.74,58.62,58.62,0,0,0,64.3-94.45ZM117,114.82c.13-1.21.22-2.43.25-3.64q0-.34,0-.69c.37.36.76.72,1.14,1.07l.64.58C118.32,113,117.63,113.9,117,114.82Z"/><path class="cls-3" d="M155.14,53.17V9.71a7.21,7.21,0,0,0-7.21-7.21H52.71A7.21,7.21,0,0,0,45.5,9.71V212.54a7.2,7.2,0,0,0,7.21,7.2h95.22a7.2,7.2,0,0,0,7.21-7.2V147"/><line class="cls-4" x1="155.14" y1="181.91" x2="107.57" y2="181.91"/><line class="cls-4" x1="93.07" y1="181.91" x2="45.5" y2="181.91"/><path class="cls-3" d="M194,56V144.2a2.82,2.82,0,0,1-2.82,2.82H45.5V53.17H191.15A2.82,2.82,0,0,1,194,56Z"/><path class="cls-5" d="M177.78,82.33v35.53c0,1.65-1.61,3.07-3.93,3.73a10.41,10.41,0,0,1-2.92.4h-1.29c-.28,0-.55,0-.82,0l-.33,0c-.22,0-.45,0-.66.09l-.17,0-.5.11-.42.11h-.06l-.47.16-.32.12-.41.18-.38.2-.3.17c-.15.09-.29.19-.43.29l-.21.15-.06.05a3.88,3.88,0,0,0-.36.34l-.08.08a2.86,2.86,0,0,0-.31.4.6.6,0,0,0-.07.1,3.59,3.59,0,0,0-.21.38l0,.07a2.16,2.16,0,0,0-.15.45.36.36,0,0,0,0,.11,2.44,2.44,0,0,0,0,.48,3,3,0,0,1,0,.42,2.5,2.5,0,0,1-.23.7v0c0,.1-.11.2-.17.3l0,.05-.2.28s0,0,0,0a2.08,2.08,0,0,1-.24.28l0,0a6.74,6.74,0,0,1-2.89,1.6h0a8.79,8.79,0,0,1-1.07.24h0a10.88,10.88,0,0,1-1.84.15H48.26a8.89,8.89,0,0,1-.9,0l-.44,0-.19,0-.45-.07-.17,0-.45-.1-.15,0h0V70.27a7.87,7.87,0,0,1,.87-.19h0a11.06,11.06,0,0,1,1.85-.16H156c.3,0,.61,0,.9,0l.44,0,.19,0,.45.07.17,0,.44.09.16,0,.44.13.13,0,.46.17.07,0a8.29,8.29,0,0,1,1,.49c.15.1.3.19.44.3l0,0,.31.25.14.13.18.18.15.17.11.14c.06.07.11.15.16.22l.06.11a2,2,0,0,1,.14.25l0,.07a3.08,3.08,0,0,1,.21.65h0a3,3,0,0,1,0,.42,2.61,2.61,0,0,0,0,.48.5.5,0,0,0,0,.12,3.72,3.72,0,0,0,.14.44l.06.1a3.24,3.24,0,0,0,.17.32l.11.16a4.12,4.12,0,0,0,.27.35l.16.16.23.22.18.14a.5.5,0,0,0,.08.07c.18.13.37.26.57.38l.16.09c.18.1.38.2.58.29l.2.09a7.51,7.51,0,0,0,.76.28l0,0a9.64,9.64,0,0,0,1,.23l.06,0h.1l.1,0,.66.09.33,0c.27,0,.54,0,.82,0h1.29C174.71,78.19,177.78,80.05,177.78,82.33Z"/><path class="cls-4" d="M115.42,80.71H97.6a8.79,8.79,0,0,0-8.79,8.79v1.62a8.79,8.79,0,0,0,8.79,8.79h9a8.79,8.79,0,0,1,8.79,8.79v2a8.79,8.79,0,0,1-8.79,8.79H88.82"/><polyline class="cls-4" points="102.12 69.91 102.12 80.71 102.12 119.48 102.12 130.27"/><line class="cls-4" x1="59.54" y1="69.91" x2="59.54" y2="130.27"/><line class="cls-4" x1="144.69" y1="69.91" x2="144.69" y2="130.27"/><path class="cls-4" d="M75.14,2.5"/><line class="cls-4" x1="59.48" y1="21.83" x2="77.14" y2="21.83"/><line class="cls-4" x1="59.54" y1="34.5" x2="94.89" y2="34.5"/><circle class="cls-6" cx="100.32" cy="201.04" r="8.2"/><path class="cls-7" d="M27.63,27.5H25V24.9a2.36,2.36,0,1,0-4.73,0v2.6H17.7a2.36,2.36,0,0,0,0,4.73h2.6v2.6a2.36,2.36,0,0,0,4.73,0v-2.6h2.6a2.36,2.36,0,1,0,0-4.73Z"/><path class="cls-7" d="M192.42,19.47h-2.6v-2.6a2.36,2.36,0,1,0-4.73,0v2.6h-2.6a2.36,2.36,0,0,0,0,4.73h2.6v2.6a2.36,2.36,0,0,0,4.73,0V24.2h2.6a2.36,2.36,0,1,0,0-4.73Z"/><path class="cls-7" d="M19.32,177.89h-2.6v-2.6a2.36,2.36,0,1,0-4.73,0v2.6H9.39a2.36,2.36,0,0,0,0,4.73H12v2.6a2.36,2.36,0,0,0,4.73,0v-2.6h2.6a2.36,2.36,0,1,0,0-4.73Z"/><circle class="cls-8" cx="100.32" cy="181.91" r="2.4"/><line class="cls-4" x1="155.14" y1="162.5" x2="119.74" y2="162.5"/><line class="cls-4" x1="113.48" y1="162.5" x2="101.14" y2="162.5"/></g></g></g></svg>