<svg xmlns="http://www.w3.org/2000/svg" xmlns:xlink="http://www.w3.org/1999/xlink" viewBox="0 0 227.47 209.46"><defs><style>.cls-1{isolation:isolate;}.cls-2{opacity:0.4;mix-blend-mode:multiply;fill:url(#linear-gradient);}.cls-3,.cls-6{fill:#9dcc96;}.cls-4,.cls-7{fill:#f2a7c5;}.cls-5{fill:none;stroke:#1f268e;}.cls-5,.cls-6,.cls-7{stroke-miterlimit:10;stroke-width:5px;}.cls-6{stroke:#212683;}.cls-7{stroke:#1f2687;}.cls-8{fill:#1f2687;}.cls-9{fill:#1f268e;}</style><linearGradient id="linear-gradient" x1="-3085.08" y1="-490.08" x2="-2886.91" y2="-490.08" gradientTransform="translate(-372.53 3096.37) rotate(90)" gradientUnits="userSpaceOnUse"><stop offset="0" stop-color="#efa6c2"/><stop offset="1" stop-color="#96cdbd"/></linearGradient></defs><title>Money</title><g class="cls-1"><g id="Layer_2" data-name="Layer 2"><g id="Layer_1-2" data-name="Layer 1"><path class="cls-2" d="M161.41,209.46a66,66,0,0,0,57.2-99.08A66.05,66.05,0,1,0,101.2,50.19a66.06,66.06,0,1,0-.1,120.15A66.05,66.05,0,0,0,161.41,209.46Z"/><rect class="cls-3" x="2.5" y="88.87" width="183.7" height="93.85" rx="2.82" ry="2.82"/><path class="cls-4" d="M163.18,113.9h-1.29c-.28,0-.55,0-.83,0l-.33,0-.66-.09H160l-.1,0h0l-.06,0a9.48,9.48,0,0,1-1-.24l-.06,0c-.26-.08-.52-.18-.76-.28l-.2-.09c-.2-.09-.39-.19-.58-.29l-.16-.09a6.09,6.09,0,0,1-.56-.38l-.09-.06-.17-.15-.23-.22-.16-.16a3.81,3.81,0,0,1-.28-.35l-.1-.16a3.15,3.15,0,0,1-.18-.32l-.05-.1a2.75,2.75,0,0,1-.14-.44l0-.12a2.54,2.54,0,0,1-.05-.48,3.52,3.52,0,0,0,0-.43h0a2.72,2.72,0,0,0-.21-.65l0-.07c0-.08-.09-.17-.14-.25l-.07-.11-.15-.21-.11-.14-.16-.18-.18-.18-.14-.13-.31-.25,0,0c-.14-.1-.28-.2-.43-.29a7.32,7.32,0,0,0-1-.49l-.07,0-.46-.17-.13,0L151,106l-.16,0-.44-.1-.17,0-.45-.07-.19,0-.44,0c-.3,0-.6,0-.9,0H40.5a11.1,11.1,0,0,0-1.85.16h0a9.89,9.89,0,0,0-1.06.24h0a6.72,6.72,0,0,0-2.89,1.6l0,0-.24.28,0,0c-.07.09-.14.19-.2.28l0,0a3.15,3.15,0,0,0-.17.3v0a2.74,2.74,0,0,0-.23.7h0a3.52,3.52,0,0,0,0,.42,2.52,2.52,0,0,1-.05.48l0,.11a2.72,2.72,0,0,1-.15.45l0,.06a3.16,3.16,0,0,1-.21.38l-.07.11a3.82,3.82,0,0,1-.31.39l-.08.09a4.62,4.62,0,0,1-.35.33l-.07.06-.21.15-.42.29-.3.17L31,113l-.41.18-.33.12-.47.16-.06,0-.43.11c-.16,0-.32.09-.5.11l-.17,0-.66.09-.33,0c-.27,0-.55,0-.83,0H25.54a10.62,10.62,0,0,0-2.92.4c-2.32.66-3.93,2.08-3.93,3.74v35.53c0,2.28,3.07,4.14,6.85,4.14h1.29c.28,0,.55,0,.83,0l.33,0,.66.09h.09l.1,0h0l.06,0a9.47,9.47,0,0,1,1,.24l.06,0c.26.08.52.18.76.28l.2.09c.2.09.39.19.58.29l.16.09a6.15,6.15,0,0,1,.56.38l.09.06.17.15.23.22.16.16a3.81,3.81,0,0,1,.28.35l.1.16a3.15,3.15,0,0,1,.18.32l.05.1a2.73,2.73,0,0,1,.14.44l0,.12a2.55,2.55,0,0,1,.05.48,3.52,3.52,0,0,0,0,.43h0a2.72,2.72,0,0,0,.21.65l0,.07c0,.08.09.17.14.25l.07.11.15.21.11.14.16.18.18.18.14.13.31.25,0,0c.14.1.28.2.43.29a7.32,7.32,0,0,0,1,.49l.07,0,.46.17.12,0,.44.13.16,0,.44.1.17,0,.45.07.19,0,.44,0c.29,0,.59,0,.9,0H148.21a11.1,11.1,0,0,0,1.85-.16h0a9.88,9.88,0,0,0,1.06-.24h0a6.72,6.72,0,0,0,2.89-1.6l0,0,.24-.28,0,0c.07-.09.14-.19.2-.28l0,0a3.13,3.13,0,0,0,.17-.3v0a2.73,2.73,0,0,0,.23-.7h0a3.52,3.52,0,0,0,0-.42,2.52,2.52,0,0,1,.05-.48l0-.11a2.72,2.72,0,0,1,.15-.45l0-.06a3.16,3.16,0,0,1,.21-.38l.07-.11a3.82,3.82,0,0,1,.31-.39l.08-.09a4.63,4.63,0,0,1,.35-.33l.07-.06.21-.15.43-.29.3-.17.38-.19.41-.18.32-.12.47-.16.06,0,.42-.11c.16,0,.33-.09.5-.11l.17,0,.66-.09.33,0c.27,0,.55,0,.83,0h1.29a10.62,10.62,0,0,0,2.92-.4c2.32-.66,3.93-2.09,3.93-3.74V118C170,115.75,167,113.9,163.18,113.9Z"/><path class="cls-5" d="M33.3,89.17H5A2.46,2.46,0,0,0,2.5,91.63v88.92A2.46,2.46,0,0,0,5,183H34"/><path class="cls-5" d="M186.2,126v54.52a2.46,2.46,0,0,1-2.46,2.46H48.5"/><path class="cls-5" d="M170,126v27.82c0,1.65-1.61,3.08-3.93,3.74a10.67,10.67,0,0,1-2.92.4h-1.29c-.28,0-.55,0-.83,0l-.32,0-.66.09-.17,0-.5.11-.42.1-.06,0-.46.16-.32.12a3.46,3.46,0,0,0-.41.18l-.38.19-.3.17-.43.29-.21.16-.06.05a4.36,4.36,0,0,0-.36.33l-.08.09a3.45,3.45,0,0,0-.31.39l-.07.1a3.28,3.28,0,0,0-.21.38l0,.06a2.23,2.23,0,0,0-.15.45l0,.11a2.89,2.89,0,0,0-.05.48,3.4,3.4,0,0,1,0,.42,2.58,2.58,0,0,1-.23.71h0a2.63,2.63,0,0,1-.17.31l0,0a3.25,3.25,0,0,1-.2.28l0,0c-.08.1-.16.19-.24.28l0,0a6.7,6.7,0,0,1-2.89,1.6h0a9.38,9.38,0,0,1-1.06.24h0a11.33,11.33,0,0,1-1.85.16H40.5c-.31,0-.6,0-.9,0l-.45,0-.18,0a4.09,4.09,0,0,1-.45-.07l-.17,0-.45-.1-.16,0-.44-.13-.12,0-.46-.17-.08,0a8,8,0,0,1-1-.5,3.67,3.67,0,0,1-.43-.29l-.05,0-.31-.25-.14-.12-.17-.18-.16-.17-.11-.14-.15-.21-.07-.11c0-.08-.1-.17-.13-.24l0-.07a3,3,0,0,1-.21-.66h0a3.4,3.4,0,0,1,0-.42,2.19,2.19,0,0,0-.05-.48l0-.12a2.82,2.82,0,0,0-.14-.44l-.05-.1c-.05-.11-.11-.22-.17-.32l-.1-.16a2.58,2.58,0,0,0-.28-.35l-.15-.16-.24-.22-.17-.15-.09-.06a5.26,5.26,0,0,0-.56-.38l-.17-.1-.58-.29-.2-.09c-.24-.1-.49-.19-.76-.28l-.05,0c-.31-.09-.63-.17-1-.24l-.05,0h-.1l-.1,0c-.21,0-.43-.07-.66-.09l-.33,0c-.27,0-.54,0-.82,0H25.53c-3.77,0-6.85-1.85-6.85-4.14V118.32c0-1.65,1.61-3.07,3.93-3.74a10.62,10.62,0,0,1,2.92-.4h1.29c.28,0,.55,0,.82,0l.32,0c.23,0,.45-.05.66-.1l.17,0a4.59,4.59,0,0,0,.5-.11l.43-.1.05,0c.17,0,.31-.1.47-.16l.32-.12.4-.17.38-.19.3-.17a4.59,4.59,0,0,0,.43-.29l.21-.15.06-.06a4.36,4.36,0,0,0,.36-.33l.09-.09a3.11,3.11,0,0,0,.31-.38l.07-.11a1.5,1.5,0,0,0,.11-.2"/><path class="cls-5" d="M81.06,155.47H98.87a8.79,8.79,0,0,0,8.79-8.79v-2a8.79,8.79,0,0,0-8.79-8.79h-9a8.78,8.78,0,0,1-8.78-8.79V126"/><polyline class="cls-5" points="94.35 166.27 94.35 155.47 94.35 135.9 94.35 126.03"/><line class="cls-5" x1="51.78" y1="166.27" x2="51.78" y2="126.03"/><line class="cls-5" x1="136.93" y1="166.27" x2="136.93" y2="126.03"/><rect class="cls-6" x="33.3" y="32.18" width="183.7" height="93.85" rx="2.82" ry="2.82"/><path class="cls-7" d="M194,57.2h-1.29c-.28,0-.55,0-.83,0l-.33,0-.66-.09h-.09l-.1,0h0l-.06,0a9.48,9.48,0,0,1-1-.24l-.06,0c-.26-.08-.52-.18-.76-.28l-.2-.09c-.2-.09-.39-.19-.58-.29l-.16-.09a6.09,6.09,0,0,1-.56-.38l-.09-.06-.17-.15-.23-.22-.16-.16a3.81,3.81,0,0,1-.28-.35l-.1-.16a3.15,3.15,0,0,1-.18-.32l-.05-.1a2.75,2.75,0,0,1-.14-.44l0-.12a2.54,2.54,0,0,1-.05-.48,3.52,3.52,0,0,0,0-.43h0a2.72,2.72,0,0,0-.21-.65l0-.07c0-.08-.09-.17-.14-.25l-.07-.11-.15-.21-.11-.14L185,51l-.18-.18-.14-.13-.31-.25,0,0c-.14-.1-.28-.2-.43-.29a7.32,7.32,0,0,0-1-.49l-.07,0-.46-.17-.13,0-.44-.13-.16,0-.44-.1-.17,0-.45-.07-.19,0-.44,0c-.3,0-.6,0-.9,0H71.3a11.1,11.1,0,0,0-1.85.16h0a9.89,9.89,0,0,0-1.06.24h0a6.72,6.72,0,0,0-2.89,1.6l0,0-.24.28,0,0c-.07.09-.14.19-.2.28l0,0a3.15,3.15,0,0,0-.17.3v0a2.74,2.74,0,0,0-.23.7h0a3.52,3.52,0,0,0,0,.42,2.52,2.52,0,0,1-.05.48l0,.11a2.72,2.72,0,0,1-.15.45l0,.06a3.16,3.16,0,0,1-.21.38l-.07.11a3.82,3.82,0,0,1-.31.39l-.08.09a4.62,4.62,0,0,1-.35.33l-.07.06-.21.15-.42.29-.3.17-.38.19-.41.18-.33.12-.47.16-.06,0-.43.11c-.16,0-.32.09-.5.11l-.17,0-.66.09-.33,0c-.27,0-.55,0-.83,0H56.33a10.62,10.62,0,0,0-2.92.4c-2.32.66-3.93,2.08-3.93,3.74V96.87c0,2.28,3.07,4.14,6.85,4.14h1.29c.28,0,.55,0,.83,0l.33,0,.66.09h.09l.1,0h0l.06,0a9.47,9.47,0,0,1,1,.24l.06,0c.26.08.52.18.76.28l.2.09c.2.09.39.19.58.29l.16.09a6.15,6.15,0,0,1,.56.38l.09.06.17.15.23.22.16.16a3.81,3.81,0,0,1,.28.35l.1.16a3.15,3.15,0,0,1,.18.32l.05.1a2.73,2.73,0,0,1,.14.44l0,.12a2.55,2.55,0,0,1,.05.48,3.52,3.52,0,0,0,0,.43h0a2.72,2.72,0,0,0,.21.65l0,.07c0,.08.09.17.14.25l.07.11.15.21.11.14.16.18.18.18.14.13.31.25,0,0c.14.1.28.2.43.29a7.32,7.32,0,0,0,1,.49l.07,0,.46.17.12,0,.44.13.16,0,.44.1.17,0,.45.07.19,0,.44,0c.29,0,.59,0,.9,0H179a11.1,11.1,0,0,0,1.85-.16h0a9.88,9.88,0,0,0,1.06-.24h0a6.72,6.72,0,0,0,2.89-1.6l0,0,.24-.28,0,0c.07-.09.14-.19.2-.28l0,0a3.13,3.13,0,0,0,.17-.3v0a2.73,2.73,0,0,0,.23-.7h0a3.52,3.52,0,0,0,0-.42,2.52,2.52,0,0,1,.05-.48l0-.11a2.72,2.72,0,0,1,.15-.45l0-.06a3.16,3.16,0,0,1,.21-.38l.07-.11a3.82,3.82,0,0,1,.31-.39l.08-.09a4.63,4.63,0,0,1,.35-.33l.07-.06.21-.15.43-.29.3-.17.38-.19.41-.18.32-.12.47-.16.06,0,.42-.11c.16,0,.33-.09.5-.11l.17,0,.66-.09.33,0c.27,0,.55,0,.83,0H194a10.62,10.62,0,0,0,2.92-.4c2.32-.66,3.93-2.09,3.93-3.74V61.34C200.82,59.05,197.75,57.2,194,57.2Z"/><path class="cls-5" d="M138.45,59.71H120.64a8.79,8.79,0,0,0-8.79,8.79v1.62a8.79,8.79,0,0,0,8.79,8.79h9a8.79,8.79,0,0,1,8.79,8.79v2a8.79,8.79,0,0,1-8.79,8.79H111.85"/><polyline class="cls-5" points="125.15 48.92 125.15 59.71 125.15 98.49 125.15 109.28"/><line class="cls-5" x1="82.58" y1="48.92" x2="82.58" y2="109.28"/><line class="cls-5" x1="167.72" y1="48.92" x2="167.72" y2="109.28"/><path class="cls-8" d="M23.65,10H21V7.41a2.36,2.36,0,1,0-4.73,0V10h-2.6a2.36,2.36,0,0,0,0,4.73h2.6v2.6a2.36,2.36,0,0,0,4.73,0v-2.6h2.6a2.36,2.36,0,1,0,0-4.73Z"/><path class="cls-8" d="M191.16,5h-2.6V2.36a2.36,2.36,0,1,0-4.73,0V5h-2.6a2.36,2.36,0,0,0,0,4.73h2.6v2.6a2.36,2.36,0,0,0,4.73,0V9.69h2.6a2.36,2.36,0,1,0,0-4.73Z"/><path class="cls-8" d="M60.79,196.29h-2.6v-2.6a2.36,2.36,0,1,0-4.73,0v2.6h-2.6a2.36,2.36,0,0,0,0,4.73h2.6v2.6a2.36,2.36,0,0,0,4.73,0V201h2.6a2.36,2.36,0,1,0,0-4.73Z"/><circle class="cls-9" cx="41.25" cy="183.01" r="2.4"/><line class="cls-5" x1="97.66" y1="48.92" x2="97.66" y2="69.16"/><line class="cls-5" x1="97.66" y1="73.49" x2="97.66" y2="78.33"/></g></g></g></svg>