<svg xmlns="http://www.w3.org/2000/svg" xmlns:xlink="http://www.w3.org/1999/xlink" viewBox="0 0 212.55 217.26"><defs><style>.cls-1{isolation:isolate;}.cls-2{opacity:0.4;mix-blend-mode:multiply;fill:url(#linear-gradient);}.cls-3,.cls-4{fill:#cec09f;}.cls-3{stroke:#212683;}.cls-3,.cls-5{stroke-miterlimit:10;stroke-width:5px;}.cls-5{fill:none;stroke:#1f268e;}.cls-6{fill:#1f2687;}.cls-7{fill:#1f268e;}</style><linearGradient id="linear-gradient" x1="33.68" y1="106.73" x2="212.55" y2="106.73" gradientUnits="userSpaceOnUse"><stop offset="0" stop-color="#efa6c2"/><stop offset="1" stop-color="#96cdbd"/></linearGradient></defs><title>Money Bag</title><g class="cls-1"><g id="Layer_2" data-name="Layer 2"><g id="Layer_1-2" data-name="Layer 1"><path class="cls-2" d="M186.16,127.85a34.79,34.79,0,0,0-15.73-52.59A62.06,62.06,0,1,0,53.92,89.1a62.06,62.06,0,0,0,73.58,99.16,44.78,44.78,0,1,0,58.66-60.41Z"/><path class="cls-3" d="M75.08,44.89,64.39,26.36a8.83,8.83,0,0,1-.44-.85c-4.43-9.26,5.81-18.83,15-14.28,9.75,4.82,34.44,13.89,62.07-.05,8.8-4.45,18.88,4.27,15.34,13.47a12.24,12.24,0,0,1-.82,1.71l-10.7,18.53"/><path class="cls-4" d="M102.3,215.64H89.23c-51.84,0-84.24-56.11-58.32-101L51.23,79.43a70.62,70.62,0,0,1,5.55-8.21H162.31a69.45,69.45,0,0,1,5.56,8.21l20.33,35.22c25.91,44.88-6.49,101-58.32,101H116.8"/><path class="cls-5" d="M57.2,70.34a70.62,70.62,0,0,0-5.55,8.21L31.33,113.77c-25.92,44.88,6.48,101,58.32,101h13.07"/><path class="cls-5" d="M162.73,70.34a69.45,69.45,0,0,1,5.56,8.21l20.33,35.22c25.91,44.88-6.49,101-58.32,101H117.22"/><rect class="cls-3" x="49.39" y="44.89" width="121.16" height="25.46" rx="8" ry="8"/><path class="cls-5" d="M124.12,122.13h-19a9.35,9.35,0,0,0-9.35,9.35v1.73a9.35,9.35,0,0,0,9.35,9.35h9.6a9.35,9.35,0,0,1,9.35,9.35V154a9.35,9.35,0,0,1-9.35,9.35h-19"/><polyline class="cls-5" points="109.97 110.64 109.97 122.13 109.97 163.38 109.97 174.87"/><path class="cls-6" d="M37.74,8.93h-2.6V6.33a2.36,2.36,0,1,0-4.73,0v2.6h-2.6a2.36,2.36,0,0,0,0,4.73h2.6v2.6a2.36,2.36,0,0,0,4.73,0v-2.6h2.6a2.36,2.36,0,1,0,0-4.73Z"/><path class="cls-6" d="M202.7,45.68h-2.6v-2.6a2.36,2.36,0,1,0-4.73,0v2.6h-2.6a2.36,2.36,0,0,0,0,4.73h2.6V53a2.36,2.36,0,0,0,4.73,0V50.4h2.6a2.36,2.36,0,1,0,0-4.73Z"/><path class="cls-6" d="M12.29,101.05H9.69v-2.6a2.36,2.36,0,1,0-4.73,0v2.6H2.36a2.36,2.36,0,0,0,0,4.73H5v2.6a2.36,2.36,0,0,0,4.73,0v-2.6h2.6a2.36,2.36,0,1,0,0-4.73Z"/><circle class="cls-7" cx="109.97" cy="214.76" r="2.4"/><path class="cls-5" d="M44.71,145.43v4A38.33,38.33,0,0,0,83,187.76h0"/></g></g></g></svg>