<svg xmlns="http://www.w3.org/2000/svg" xmlns:xlink="http://www.w3.org/1999/xlink" viewBox="0 0 228.35 234.48"><defs><style>.cls-1{isolation:isolate;}.cls-2{opacity:0.4;mix-blend-mode:multiply;fill:url(#linear-gradient);}.cls-3{fill:#cec09f;}.cls-3,.cls-4{stroke:#212683;}.cls-3,.cls-4,.cls-5,.cls-6{stroke-miterlimit:10;stroke-width:5px;}.cls-4{fill:#9dcc96;}.cls-5{fill:#f2a7c5;stroke:#1f2687;}.cls-6{fill:none;stroke:#1f268e;}.cls-7{fill:#1f268e;}.cls-8{fill:#1f2687;}</style><linearGradient id="linear-gradient" x1="24.12" y1="106.73" x2="202.99" y2="106.73" gradientUnits="userSpaceOnUse"><stop offset="0" stop-color="#efa6c2"/><stop offset="1" stop-color="#96cdbd"/></linearGradient></defs><title>Presentation</title><g class="cls-1"><g id="Layer_2" data-name="Layer 2"><g id="Layer_1-2" data-name="Layer 1"><path class="cls-2" d="M176.61,127.85a34.79,34.79,0,0,0-15.73-52.59A62.06,62.06,0,1,0,44.36,89.1a62.06,62.06,0,0,0,73.58,99.16,44.78,44.78,0,1,0,58.66-60.41Z"/><path class="cls-3" d="M51,192.77h169.5a5.32,5.32,0,0,0,5.32-5.32V181a5.32,5.32,0,0,0-5.32-5.32H7.82A5.32,5.32,0,0,0,2.5,181v6.49a5.32,5.32,0,0,0,5.32,5.32h28.7"/><rect class="cls-3" x="2.5" y="42.46" width="223.35" height="17.12" rx="5.32" ry="5.32"/><path class="cls-4" d="M23.09,59.58H205.26a0,0,0,0,1,0,0V173.72a1.93,1.93,0,0,1-1.93,1.93H25a1.93,1.93,0,0,1-1.93-1.93V59.58A0,0,0,0,1,23.09,59.58Z"/><rect class="cls-5" x="74.43" y="105.55" width="19.87" height="41.4"/><rect class="cls-5" x="94.3" y="84.02" width="19.87" height="62.93"/><rect class="cls-5" x="114.17" y="108.12" width="19.87" height="38.83"/><rect class="cls-5" x="134.05" y="84.02" width="19.87" height="62.93"/><line class="cls-6" x1="58.79" y1="146.95" x2="169.56" y2="146.95"/><circle class="cls-7" cx="36.52" cy="71.51" r="3.38"/><circle class="cls-7" cx="36.52" cy="163.15" r="3.38"/><circle class="cls-7" cx="191.83" cy="71.51" r="3.38"/><circle class="cls-7" cx="191.83" cy="163.15" r="3.38"/><line class="cls-6" x1="114.17" y1="192.77" x2="114.17" y2="209.89"/><circle class="cls-5" cx="114.17" cy="219.82" r="12.14"/><path class="cls-8" d="M28.05,8.34h-2.6V5.73a2.36,2.36,0,1,0-4.73,0v2.6h-2.6a2.36,2.36,0,0,0,0,4.73h2.6v2.6a2.36,2.36,0,0,0,4.73,0v-2.6h2.6a2.36,2.36,0,1,0,0-4.73Z"/><path class="cls-8" d="M193.41,15h-2.6V12.4a2.36,2.36,0,1,0-4.73,0V15h-2.6a2.36,2.36,0,0,0,0,4.73h2.6v2.6a2.36,2.36,0,0,0,4.73,0v-2.6h2.6a2.36,2.36,0,1,0,0-4.73Z"/><path class="cls-8" d="M20.73,224.79h-2.6v-2.6a2.36,2.36,0,1,0-4.73,0v2.6H10.8a2.36,2.36,0,0,0,0,4.73h2.6v2.6a2.36,2.36,0,0,0,4.73,0v-2.6h2.6a2.36,2.36,0,1,0,0-4.73Z"/><circle class="cls-7" cx="43.61" cy="192.77" r="2.4"/><line class="cls-6" x1="23.09" y1="102.79" x2="39.9" y2="102.79"/><line class="cls-6" x1="43.61" y1="102.79" x2="49.66" y2="102.79"/></g></g></g></svg>