<svg xmlns="http://www.w3.org/2000/svg" xmlns:xlink="http://www.w3.org/1999/xlink" viewBox="0 0 256.7 219.49"><defs><style>.cls-1{isolation:isolate;}.cls-2{opacity:0.4;mix-blend-mode:multiply;fill:url(#linear-gradient);}.cls-3{fill:#f2a7c5;stroke:#1f2687;}.cls-3,.cls-5,.cls-6{stroke-miterlimit:10;stroke-width:5px;}.cls-4,.cls-6{fill:#cec09f;}.cls-5{fill:none;stroke:#1f268e;}.cls-6{stroke:#212683;}.cls-7{fill:#1f2687;}.cls-8{fill:#1f268e;}</style><linearGradient id="linear-gradient" x1="-253.45" y1="1196.34" x2="0.42" y2="1196.34" gradientTransform="matrix(0.89, -0.46, 0.46, 0.89, -309.59, -1023.82)" gradientUnits="userSpaceOnUse"><stop offset="0" stop-color="#efa6c2"/><stop offset="1" stop-color="#96cdbd"/></linearGradient></defs><title>Safe Box</title><g class="cls-1"><g id="Layer_2" data-name="Layer 2"><g id="Layer_1-2" data-name="Layer 1"><path class="cls-2" d="M149.94,29.65a73,73,0,0,0-21.86,17.17c-.54-1.33-1.13-2.65-1.8-3.95A48.84,48.84,0,1,0,39.39,87.52c.18.34.37.68.55,1a73.25,73.25,0,1,0,118.52,75.13,73.25,73.25,0,1,0-8.52-134Z"/><path class="cls-3" d="M199.83,146.48v35.35a3.28,3.28,0,0,1-3.28,3.28H32.66a3.28,3.28,0,0,1-3.28-3.28V17.94a3.28,3.28,0,0,1,3.28-3.28H196.55a3.28,3.28,0,0,1,3.28,3.28V53.28"/><path class="cls-3" d="M183.79,146.48v20.23a2.36,2.36,0,0,1-2.36,2.36H47.77a2.36,2.36,0,0,1-2.36-2.36V33.05a2.35,2.35,0,0,1,2.36-2.36H181.44a2.35,2.35,0,0,1,2.36,2.36V53.28"/><path class="cls-4" d="M114.31,64.86A35.16,35.16,0,1,0,149.47,100,35.16,35.16,0,0,0,114.31,64.86Zm0,53A17.84,17.84,0,1,1,132.15,100,17.84,17.84,0,0,1,114.31,117.85Z"/><line class="cls-5" x1="199.83" y1="129.21" x2="199.83" y2="70.56"/><line class="cls-5" x1="183.79" y1="129.21" x2="183.79" y2="70.56"/><circle class="cls-5" cx="114.6" cy="99.88" r="35.16"/><line class="cls-5" x1="114.6" y1="135.04" x2="114.6" y2="117.72"/><line class="cls-5" x1="114.6" y1="82.04" x2="114.6" y2="64.72"/><line class="cls-5" x1="96.76" y1="99.88" x2="79.44" y2="99.88"/><line class="cls-5" x1="149.77" y1="99.88" x2="132.44" y2="99.88"/><circle class="cls-5" cx="114.6" cy="99.88" r="17.84"/><rect class="cls-6" x="164.36" y="53.28" width="45.65" height="17.27" rx="3.17" ry="3.17"/><rect class="cls-6" x="164.36" y="129.21" width="45.65" height="17.27" rx="3.17" ry="3.17"/><polyline class="cls-3" points="122.44 202.05 183.79 202.05 183.79 185.11 45.41 185.11 45.41 202.05 106.77 202.05"/><line class="cls-5" x1="62.26" y1="59.88" x2="62.26" y2="139.89"/><path class="cls-7" d="M12.29,28.33H9.69v-2.6a2.36,2.36,0,1,0-4.73,0v2.6H2.36a2.36,2.36,0,0,0,0,4.73H5v2.6a2.36,2.36,0,0,0,4.73,0v-2.6h2.6a2.36,2.36,0,1,0,0-4.73Z"/><path class="cls-7" d="M222.62,5H220V2.36a2.36,2.36,0,1,0-4.73,0V5h-2.6a2.36,2.36,0,0,0,0,4.73h2.6v2.6a2.36,2.36,0,0,0,4.73,0V9.69h2.6a2.36,2.36,0,1,0,0-4.73Z"/><path class="cls-7" d="M18.21,209.8h-2.6v-2.6a2.36,2.36,0,1,0-4.73,0v2.6H8.28a2.36,2.36,0,0,0,0,4.73h2.6v2.6a2.36,2.36,0,0,0,4.73,0v-2.6h2.6a2.36,2.36,0,1,0,0-4.73Z"/><circle class="cls-8" cx="114.6" cy="202.05" r="2.4"/><line class="cls-5" x1="45.42" y1="154.16" x2="96.77" y2="154.16"/><line class="cls-5" x1="104.07" y1="154.16" x2="112.2" y2="154.16"/></g></g></g></svg>