<svg xmlns="http://www.w3.org/2000/svg" xmlns:xlink="http://www.w3.org/1999/xlink" viewBox="0 0 234.88 234.31"><defs><style>.cls-1{isolation:isolate;}.cls-2{opacity:0.4;mix-blend-mode:multiply;fill:url(#linear-gradient);}.cls-3,.cls-4{fill:#cec09f;}.cls-3,.cls-6{stroke:#212683;}.cls-3,.cls-5,.cls-6{stroke-miterlimit:10;stroke-width:5px;}.cls-5{fill:none;stroke:#1f268e;}.cls-6{fill:#9dcc96;}.cls-7{fill:#1f2687;}.cls-8{fill:#1f268e;}</style><linearGradient id="linear-gradient" x1="2.95" y1="120.15" x2="226.39" y2="120.15" gradientUnits="userSpaceOnUse"><stop offset="0" stop-color="#efa6c2"/><stop offset="1" stop-color="#96cdbd"/></linearGradient></defs><title>Security</title><g class="cls-1"><g id="Layer_2" data-name="Layer 2"><g id="Layer_1-2" data-name="Layer 1"><path class="cls-2" d="M187.72,104.8A53.78,53.78,0,1,0,115.1,27.74,68.07,68.07,0,1,0,94,143.75a68.09,68.09,0,1,0,93.69-38.95Z"/><path class="cls-3" d="M54.47,36.8,44,18.59a8.68,8.68,0,0,1-.43-.83c-4.35-9.1,5.71-18.5,14.75-14,9.58,4.74,33.85,13.65,61-.05,8.65-4.37,18.55,4.2,15.08,13.23a12,12,0,0,1-.81,1.68L123,36.8"/><path class="cls-4" d="M81.9,203.74H69.2c-50.38,0-81.86-54.53-56.68-98.14L32.27,71.37a68.63,68.63,0,0,1,5.39-8H140.22a67.49,67.49,0,0,1,5.4,8l19.76,34.23c25.18,43.61-6.31,98.14-56.68,98.14H96"/><path class="cls-5" d="M96,203.74h12.71A65.77,65.77,0,0,0,140,196"/><path class="cls-5" d="M36.89,61.82a67.45,67.45,0,0,0-5.46,8.07l-20,34.61c-25.47,44.11,6.37,99.24,57.32,99.24H81.51"/><path class="cls-5" d="M140.6,61.82a67.27,67.27,0,0,1,5.45,8.07l19,32.87"/><rect class="cls-3" x="29.22" y="36.8" width="119.06" height="25.02" rx="8" ry="8"/><path class="cls-5" d="M102.66,112.71H84a9.19,9.19,0,0,0-9.19,9.19v1.7A9.19,9.19,0,0,0,84,132.78h9.44a9.19,9.19,0,0,1,9.19,9.19v2.09a9.19,9.19,0,0,1-9.19,9.19H74.84"/><polyline class="cls-5" points="88.75 101.42 88.75 112.71 88.75 153.25 88.75 164.53"/><path class="cls-6" d="M159.91,104.82c-5.49,6.08-16.54,14.23-37,15.64a6.43,6.43,0,0,0-6,6.89c1.37,17.28,8.34,63.94,43.93,89.94a6.45,6.45,0,0,0,7.6,0c35.59-26,42.56-72.66,43.93-89.94a6.43,6.43,0,0,0-6-6.89c-20.46-1.41-31.51-9.56-37-15.64A6.36,6.36,0,0,0,159.91,104.82Z"/><polyline class="cls-5" points="153.36 150.34 164.62 164.74 233.11 96.26"/><path class="cls-7" d="M18.51,17.29h-2.6v-2.6a2.36,2.36,0,1,0-4.73,0v2.6H8.58a2.36,2.36,0,0,0,0,4.73h2.6v2.6a2.36,2.36,0,0,0,4.73,0V22h2.6a2.36,2.36,0,1,0,0-4.73Z"/><path class="cls-7" d="M228.59,55.66H226v-2.6a2.36,2.36,0,1,0-4.73,0v2.6h-2.6a2.36,2.36,0,0,0,0,4.73h2.6V63A2.36,2.36,0,0,0,226,63v-2.6h2.6a2.36,2.36,0,1,0,0-4.73Z"/><path class="cls-7" d="M18.51,197.5h-2.6v-2.6a2.36,2.36,0,1,0-4.73,0v2.6H8.58a2.36,2.36,0,0,0,0,4.73h2.6v2.6a2.36,2.36,0,0,0,4.73,0v-2.6h2.6a2.36,2.36,0,1,0,0-4.73Z"/><circle class="cls-8" cx="88.76" cy="203.74" r="2.4"/><path class="cls-5" d="M26.49,136v4a38.33,38.33,0,0,0,38.33,38.33h0"/></g></g></g></svg>