<svg xmlns="http://www.w3.org/2000/svg" xmlns:xlink="http://www.w3.org/1999/xlink" viewBox="0 0 216.23 236.05"><defs><style>.cls-1{isolation:isolate;}.cls-2{opacity:0.4;mix-blend-mode:multiply;fill:url(#linear-gradient);}.cls-3{fill:#cec09f;stroke:#212683;}.cls-3,.cls-4,.cls-5{stroke-miterlimit:10;stroke-width:5px;}.cls-4{fill:#f2a7c5;stroke:#1f2687;}.cls-5{fill:none;stroke:#1f268e;}.cls-6{fill:#1f2687;}.cls-7{fill:#1f268e;}</style><linearGradient id="linear-gradient" x1="-320.46" y1="439.71" x2="-116.07" y2="439.71" gradientTransform="translate(534.4 -160.94) rotate(27.99)" gradientUnits="userSpaceOnUse"><stop offset="0" stop-color="#efa6c2"/><stop offset="1" stop-color="#96cdbd"/></linearGradient></defs><title>Target</title><g class="cls-1"><g id="Layer_2" data-name="Layer 2"><g id="Layer_1-2" data-name="Layer 1"><path class="cls-2" d="M184.46,129.29a56.57,56.57,0,0,0-18.44-6A67.89,67.89,0,1,0,66,98.29a56.69,56.69,0,1,0,38.72,100.82,56.68,56.68,0,1,0,79.73-69.83Z"/><circle class="cls-3" cx="108.12" cy="113.65" r="68.68"/><circle class="cls-4" cx="108.12" cy="113.65" r="33.82"/><polyline class="cls-5" points="108.12 147.47 108.12 182.33 108.12 196.31"/><line class="cls-5" x1="108.12" y1="222.68" x2="108.12" y2="210.81"/><polyline class="cls-5" points="108.12 6.44 108.12 44.96 108.12 79.82"/><polyline class="cls-5" points="74.32 114.56 39.45 114.56 0 114.56"/><polyline class="cls-5" points="141.92 114.56 176.79 114.56 216.24 114.56"/><circle class="cls-5" cx="108.12" cy="113.65" r="11.32"/><path class="cls-6" d="M32.47,40.77h-2.6v-2.6a2.36,2.36,0,1,0-4.73,0v2.6h-2.6a2.36,2.36,0,0,0,0,4.73h2.6v2.6a2.36,2.36,0,0,0,4.73,0V45.5h2.6a2.36,2.36,0,1,0,0-4.73Z"/><path class="cls-6" d="M190.28,28.28h-2.6v-2.6a2.36,2.36,0,1,0-4.73,0v2.6h-2.6a2.36,2.36,0,0,0,0,4.73H183v2.6a2.36,2.36,0,0,0,4.73,0V33h2.6a2.36,2.36,0,1,0,0-4.73Z"/><path class="cls-6" d="M32.47,189.35h-2.6v-2.6a2.36,2.36,0,1,0-4.73,0v2.6h-2.6a2.36,2.36,0,0,0,0,4.73h2.6v2.6a2.36,2.36,0,0,0,4.73,0v-2.6h2.6a2.36,2.36,0,1,0,0-4.73Z"/><circle class="cls-7" cx="108.12" cy="203.88" r="2.4"/><path class="cls-5" d="M131.15,69.31h0A19.79,19.79,0,0,1,150.94,89.1v3"/></g></g></g></svg>