<svg xmlns="http://www.w3.org/2000/svg" xmlns:xlink="http://www.w3.org/1999/xlink" viewBox="0 0 244.33 228.77"><defs><style>.cls-1{isolation:isolate;}.cls-2{opacity:0.4;mix-blend-mode:multiply;fill:url(#linear-gradient);}.cls-3{fill:#9dcc96;}.cls-3,.cls-4{stroke:#212683;}.cls-3,.cls-4,.cls-5{stroke-miterlimit:10;stroke-width:5px;}.cls-4{fill:#9faed0;}.cls-5{fill:none;stroke:#1f268e;}.cls-6{fill:#1f268e;}.cls-7{fill:#1f2687;}</style><linearGradient id="linear-gradient" x1="-1763.43" y1="-104.59" x2="-1555.83" y2="-104.59" gradientTransform="translate(1249.58 1345.33) rotate(43.53)" gradientUnits="userSpaceOnUse"><stop offset="0" stop-color="#efa6c2"/><stop offset="1" stop-color="#96cdbd"/></linearGradient></defs><title>Time</title><g class="cls-1"><g id="Layer_2" data-name="Layer 2"><g id="Layer_1-2" data-name="Layer 1"><path class="cls-2" d="M225.3,164.53a69.19,69.19,0,0,0-34-114.94A69.2,69.2,0,1,0,60.89,95.34a69.2,69.2,0,1,0,91.18,86.77A69.2,69.2,0,0,0,225.3,164.53Z"/><path class="cls-3" d="M114,172.88a84.15,84.15,0,1,1,66-68.4"/><path class="cls-3" d="M112.89,154.44a66,66,0,1,1,48.63-50.39"/><path class="cls-4" d="M225.86,153.32a56.82,56.82,0,0,0-56.42-49.82,55.93,55.93,0,0,0-7.92.56,56.86,56.86,0,0,0-48.63,50.39,57.6,57.6,0,0,0-.3,5.91,56.86,56.86,0,0,0,113.22,7.46"/><line class="cls-5" x1="96.95" y1="24.4" x2="96.95" y2="36.92"/><line class="cls-5" x1="96.95" y1="144.55" x2="96.95" y2="157.06"/><line class="cls-5" x1="161.52" y1="88.98" x2="149.01" y2="88.98"/><line class="cls-5" x1="44.9" y1="88.98" x2="32.38" y2="88.98"/><line class="cls-5" x1="60.14" y1="52.17" x2="51.29" y2="43.32"/><line class="cls-5" x1="51.29" y1="134.63" x2="60.14" y2="125.78"/><line class="cls-5" x1="133.76" y1="52.17" x2="142.61" y2="43.32"/><path class="cls-6" d="M94.45,57.4V88.13c0,3.55,1.44,4.82,3.8,7.48l10.59,11.91c2.14,2.41,5.67-1.14,3.54-3.54l-9.72-10.93c-.31-.35-3.52-4.5-3.9-4.38,1.14-.36.06,2.77.69.8a10,10,0,0,0,0-2.51V57.4c0-3.22-5-3.22-5,0Z"/><path class="cls-4" d="M184.83,138.13H164.22A10.17,10.17,0,0,0,154,148.3v1.88a10.17,10.17,0,0,0,10.17,10.17h10.45a10.17,10.17,0,0,1,10.17,10.17v2.31A10.17,10.17,0,0,1,174.66,183H154"/><polyline class="cls-4" points="169.44 125.64 169.44 138.13 169.44 183.01 169.44 195.5"/><polyline class="cls-5" points="30.14 141.38 30.14 203.88 90.14 203.88"/><polyline class="cls-5" points="72.82 191.05 93.72 203.88 72.82 216.72"/><path class="cls-7" d="M19.62,9.37H17V6.77a2.36,2.36,0,1,0-4.73,0v2.6H9.69a2.36,2.36,0,0,0,0,4.73h2.6v2.6a2.36,2.36,0,0,0,4.73,0V14.1h2.6a2.36,2.36,0,1,0,0-4.73Z"/><path class="cls-7" d="M217.35,55h-2.6v-2.6a2.36,2.36,0,1,0-4.73,0V55h-2.6a2.36,2.36,0,0,0,0,4.73H210v2.6a2.36,2.36,0,0,0,4.73,0v-2.6h2.6a2.36,2.36,0,1,0,0-4.73Z"/><path class="cls-7" d="M12.29,214.84H9.69v-2.6a2.36,2.36,0,1,0-4.73,0v2.6H2.36a2.36,2.36,0,0,0,0,4.73H5v2.6a2.36,2.36,0,0,0,4.73,0v-2.6h2.6a2.36,2.36,0,1,0,0-4.73Z"/><line class="cls-5" x1="136.15" y1="114.27" x2="136.15" y2="158.39"/><line class="cls-5" x1="136.15" y1="165.05" x2="136.15" y2="172.64"/><circle class="cls-6" cx="226.29" cy="160.57" r="2.4"/></g></g></g></svg>