<svg xmlns="http://www.w3.org/2000/svg" xmlns:xlink="http://www.w3.org/1999/xlink" viewBox="0 0 237.11 231.79"><defs><style>.cls-1{isolation:isolate;}.cls-2{opacity:0.4;mix-blend-mode:multiply;fill:url(#linear-gradient);}.cls-3{fill:#9dcc96;stroke:#212683;}.cls-3,.cls-4,.cls-5,.cls-6{stroke-miterlimit:10;stroke-width:5px;}.cls-4{fill:#f2a7c5;}.cls-4,.cls-6{stroke:#1f2687;}.cls-5{fill:none;stroke:#1f268e;}.cls-6{fill:#a8dedb;}.cls-7{fill:#1f268e;}.cls-8{fill:#1f2687;}</style><linearGradient id="linear-gradient" x1="-513.23" y1="-67.79" x2="-272.79" y2="-67.79" gradientTransform="matrix(0.9, -0.43, 0.43, 0.9, 502.11, 8.1)" gradientUnits="userSpaceOnUse"><stop offset="0" stop-color="#efa6c2"/><stop offset="1" stop-color="#96cdbd"/></linearGradient></defs><title>Wallet</title><g class="cls-1"><g id="Layer_2" data-name="Layer 2"><g id="Layer_1-2" data-name="Layer 1"><path class="cls-2" d="M133.21,24.86A67.09,67.09,0,0,0,104.8,50.42,44.3,44.3,0,1,0,40.72,111.6,67.42,67.42,0,1,0,149,151.84a67.43,67.43,0,1,0-15.76-127Z"/><path class="cls-3" d="M23.78,63.4V10.16A2.82,2.82,0,0,1,26.6,7.34h174a2.82,2.82,0,0,1,2.82,2.82V63.4"/><path class="cls-4" d="M187.6,63.4V35.86c0-2.24-3-4-6.69-4h-1.27c-.27,0-.54,0-.8,0l-.32,0a6.37,6.37,0,0,1-.65-.09h-.1l-.09,0h-.06a8.6,8.6,0,0,1-.94-.24h0q-.39-.12-.75-.27l-.19-.09c-.2-.09-.39-.18-.57-.28l-.16-.1a5.28,5.28,0,0,1-.55-.37l-.08-.06-.17-.15-.23-.21-.15-.15a4.11,4.11,0,0,1-.27-.35l-.1-.15a2.48,2.48,0,0,1-.18-.31.54.54,0,0,0-.05-.11,3,3,0,0,1-.14-.42.5.5,0,0,1,0-.12,2.42,2.42,0,0,1,0-.47,2.71,2.71,0,0,0,0-.41h0a3,3,0,0,0-.2-.64l0-.07c0-.08-.09-.16-.14-.24l-.06-.11-.15-.21-.11-.13-.15-.18-.18-.17-.13-.12a3.61,3.61,0,0,0-.3-.25l-.05,0a4.43,4.43,0,0,0-.42-.29,7.29,7.29,0,0,0-1-.48l-.07,0-.45-.17-.13,0-.43-.12-.15,0-.43-.1-.17,0-.44-.07-.19,0-.43,0a8.51,8.51,0,0,0-.88,0H60.94a10.49,10.49,0,0,0-1.8.15h0c-.36.07-.71.15-1,.24h0a6.61,6.61,0,0,0-2.82,1.57l0,0a3.27,3.27,0,0,0-.24.27l0,0a2.83,2.83,0,0,0-.2.28l0,0-.16.29s0,0,0,0a2.78,2.78,0,0,0-.22.69,2.83,2.83,0,0,0,0,.41,2.42,2.42,0,0,1,0,.47l0,.11a2.25,2.25,0,0,1-.14.44l0,.06a2.71,2.71,0,0,1-.21.37l-.06.11c-.1.13-.2.26-.31.38l-.08.09a3.59,3.59,0,0,1-.35.32l-.06.06-.21.15-.41.28-.3.16-.37.19a2.87,2.87,0,0,1-.4.18l-.32.12-.45.15-.06,0-.42.1-.48.11-.16,0-.65.09-.32,0q-.41,0-.81,0H46.31a10.35,10.35,0,0,0-2.86.4c-2.27.65-3.84,2-3.84,3.65V63.4"/><path class="cls-5" d="M126.61,34.27H109.19a8.6,8.6,0,0,0-8.59,8.59v1.59a8.6,8.6,0,0,0,8.59,8.6H118a8.58,8.58,0,0,1,8.59,8.59V63.4"/><polyline class="cls-5" points="113.61 23.72 113.61 34.27 113.61 53.05 113.61 63.4"/><line class="cls-5" x1="71.97" y1="63.4" x2="71.97" y2="23.72"/><line class="cls-5" x1="155.24" y1="63.4" x2="155.24" y2="23.72"/><path class="cls-3" d="M211.61,149.11v46.54a5,5,0,0,1-5,5H20.57a5,5,0,0,1-5-5V68.36a5,5,0,0,1,5-5H206.64a5,5,0,0,1,5,5V114.9"/><rect class="cls-6" x="159.57" y="114.91" width="62.89" height="34.21" rx="1.87" ry="1.87"/><circle class="cls-7" cx="175.34" cy="132.01" r="3.95"/><line class="cls-5" x1="15.61" y1="83.59" x2="211.61" y2="83.59"/><line class="cls-5" x1="211.6" y1="180.44" x2="54.11" y2="180.44"/><line class="cls-5" x1="39.61" y1="180.44" x2="15.61" y2="180.44"/><path class="cls-8" d="M12.29,5H9.69V2.36A2.36,2.36,0,1,0,5,2.36V5H2.36a2.36,2.36,0,0,0,0,4.73H5v2.6a2.36,2.36,0,0,0,4.73,0V9.69h2.6a2.36,2.36,0,1,0,0-4.73Z"/><path class="cls-8" d="M234.75,39.33h-2.6v-2.6a2.36,2.36,0,1,0-4.73,0v2.6h-2.6a2.36,2.36,0,0,0,0,4.73h2.6v2.6a2.36,2.36,0,0,0,4.73,0v-2.6h2.6a2.36,2.36,0,1,0,0-4.73Z"/><path class="cls-8" d="M28.73,217h-2.6v-2.6a2.36,2.36,0,1,0-4.73,0V217h-2.6a2.36,2.36,0,0,0,0,4.73h2.6v2.6a2.36,2.36,0,0,0,4.73,0v-2.6h2.6a2.36,2.36,0,1,0,0-4.73Z"/><circle class="cls-7" cx="47.11" cy="180.44" r="2.4"/><line class="cls-5" x1="100.6" y1="83.59" x2="100.6" y2="143.25"/><line class="cls-5" x1="100.6" y1="149.12" x2="100.6" y2="159.25"/></g></g></g></svg>